<svg width="203" height="189" viewBox="0 0 203 189" fill="none" xmlns="http://www.w3.org/2000/svg">
<g clip-path="url(#clip0_41_2998)">
<path d="M122.144 164.817C116.495 166.444 110.554 165.77 105.41 162.926L38.3985 125.891C32.5263 122.679 27.4104 118.39 23.2212 113.153C19.0184 107.92 15.9345 101.994 14.0656 95.5558C12.2065 89.0997 11.6256 82.4532 12.3704 75.7805C13.1151 69.1078 15.1353 62.7492 18.3922 56.8788C21.6451 50.9947 25.9555 45.9023 31.2102 41.7229C36.4278 37.5689 42.334 34.5202 48.7491 32.6729C55.3186 30.796 61.9632 30.2601 68.6301 31.0361C74.3778 31.7066 79.8928 33.3179 85.05 35.847C91.686 25.5078 101.746 18.0043 113.659 14.5736L113.946 14.4909C126.869 10.8586 140.463 12.4395 152.209 18.922C163.96 25.4181 172.524 36.0757 176.324 48.9643C180.121 61.8392 178.72 75.4405 172.392 87.2611L170.98 89.8156L135.338 154.308C132.494 159.452 127.821 163.182 122.172 164.809L122.144 164.817Z" fill="#E84029"/>
<path d="M51.8069 43.0348C56.8816 41.5735 62.1245 41.1598 67.3657 41.7687C72.6069 42.3776 77.6176 43.9861 82.2274 46.5691C84.0811 47.6054 86.2422 47.8571 88.2939 47.2662C90.3456 46.6754 91.9579 45.3816 92.9924 43.5729C98.1762 34.4665 106.572 27.8718 116.653 24.9688L116.885 24.9019C127.054 22.0477 137.748 23.2787 146.997 28.3919C156.246 33.505 162.989 41.9023 165.966 52.0358C168.957 62.1653 167.847 72.8684 162.897 82.115L125.867 149.095C124.416 151.72 122.041 153.604 119.168 154.431C116.296 155.258 113.265 154.916 110.644 153.479L43.6108 116.421C38.9718 113.891 34.9488 110.516 31.6418 106.388C28.3387 102.273 25.9143 97.6093 24.4393 92.5387C22.978 87.4641 22.5233 82.2329 23.1009 76.9859C23.6922 71.735 25.287 66.7283 27.8387 62.1126C30.3904 57.497 33.7959 53.4798 37.9282 50.1864C42.0371 46.9147 46.6816 44.5255 51.7288 43.0721L51.8109 43.0485M50.639 38.9274L50.5432 38.955C44.9488 40.566 39.8161 43.2142 35.2602 46.8369C30.6809 50.4811 26.9244 54.9253 24.1 60.0342C21.2658 65.1608 19.5098 70.6878 18.8591 76.504C18.2084 82.3201 18.7073 88.1162 20.3359 93.7203C21.9547 99.3421 24.6519 104.49 28.3059 109.052C31.9598 113.614 36.4274 117.349 41.5598 120.152L108.575 157.2C112.186 159.197 116.366 159.667 120.346 158.521C124.326 157.375 127.602 154.758 129.612 151.142L166.641 84.1622C172.163 73.8624 173.374 62.0192 170.068 50.7954C166.762 39.5717 159.303 30.2843 149.067 24.6258C138.832 18.9672 126.986 17.5939 115.737 20.7593C115.655 20.7829 115.573 20.8065 115.49 20.8302C104.343 24.0403 95.0531 31.3369 89.3102 41.4337C88.8193 42.3009 88.0247 42.8852 87.1357 43.1412C86.2466 43.3972 85.2317 43.3192 84.3332 42.8225C79.2301 39.9668 73.6951 38.1834 67.8848 37.5014C62.0784 36.8331 56.2744 37.3046 50.6624 38.9058L50.639 38.9274Z" fill="#001A2F"/>
</g>
<defs>
<clipPath id="clip0_41_2998">
<rect width="168.801" height="147.294" fill="white" transform="translate(0 46.7109) rotate(-16.0645)"/>
</clipPath>
</defs>
</svg>
