<svg width="228" height="37" viewBox="0 0 228 37" fill="none" xmlns="http://www.w3.org/2000/svg">
<path d="M83.5458 18.2321C83.5458 27.44 76.898 35.0521 68.2627 36.2878C67.455 36.4032 66.6289 36.4631 65.7905 36.4631C64.8223 36.4631 63.8724 36.3833 62.9461 36.23C54.4928 34.8327 48.0352 27.3056 48.0352 18.231C48.0352 8.16228 55.9845 0 65.7905 0C75.5965 0 83.5458 8.16228 83.5458 18.231V18.2321Z" fill="#002B00"/>
<path d="M71.3502 7.28735H60.2294C57.157 7.28735 54.6582 9.85309 54.6582 13.0078V23.4544C54.6582 26.6091 57.157 29.1749 60.2294 29.1749H71.3502C74.4226 29.1749 76.9214 26.6091 76.9214 23.4544V13.0078C76.9214 9.85309 74.4226 7.28735 71.3502 7.28735ZM56.6233 13.0078C56.6233 10.9659 58.2408 9.30509 60.2294 9.30509H71.3502C73.3388 9.30509 74.9563 10.9659 74.9563 13.0078V23.4544C74.9563 25.4963 73.3388 27.1571 71.3502 27.1571H60.2294C58.2408 27.1571 56.6233 25.4963 56.6233 23.4544V13.0078Z" fill="#FEFADB"/>
<path d="M65.7901 23.5539C68.6477 23.5539 70.9727 21.1666 70.9727 18.2324C70.9727 15.2982 68.6477 12.9109 65.7901 12.9109C62.9324 12.9109 60.6074 15.2982 60.6074 18.2324C60.6074 21.1666 62.9324 23.5539 65.7901 23.5539ZM65.7901 14.9297C67.564 14.9297 69.0066 16.411 69.0066 18.2324C69.0066 20.0538 67.564 21.5351 65.7901 21.5351C64.0162 21.5351 62.5735 20.0538 62.5735 18.2324C62.5735 16.411 64.0162 14.9297 65.7901 14.9297Z" fill="#FEFADB"/>
<path d="M71.4533 13.7694C72.2231 13.7694 72.8499 13.1259 72.8499 12.3354C72.8499 11.5449 72.2231 10.9014 71.4533 10.9014C70.6834 10.9014 70.0566 11.5449 70.0566 12.3354C70.0566 13.1259 70.6834 13.7694 71.4533 13.7694Z" fill="#FEFADB"/>
<path d="M227.647 18.2321C227.647 27.44 221 35.0521 212.364 36.2878C211.557 36.4032 210.73 36.4631 209.892 36.4631C208.924 36.4631 207.974 36.3833 207.048 36.23C198.594 34.8327 192.137 27.3056 192.137 18.231C192.137 8.16228 200.086 0 209.892 0C219.698 0 227.647 8.16228 227.647 18.231V18.2321Z" fill="#002B00"/>
<path d="M220.387 11.5531C219.894 12.0644 219.211 12.3804 218.454 12.3804C218.358 12.3804 218.262 12.3751 218.169 12.3646C218.958 11.8786 219.568 11.1174 219.871 10.2094C219.871 10.2094 219.872 10.2094 219.872 10.2083C219.914 10.0865 219.95 9.9637 219.979 9.83667C219.354 10.5222 218.5 10.9862 217.542 11.0964C217.395 11.1143 217.246 11.1227 217.095 11.1227C217.046 11.1227 217 11.1216 216.954 11.1185C216.63 10.7689 216.244 10.4802 215.816 10.2681C215.338 10.0288 214.804 9.88811 214.241 9.87026C214.195 9.86711 214.149 9.86606 214.101 9.86606C213.623 9.86606 213.165 9.9532 212.742 10.1138C212.634 10.1548 212.528 10.1989 212.425 10.2503C211.084 10.8959 210.155 12.2953 210.155 13.9173C210.155 14.2501 210.195 14.5734 210.268 14.8821C209.857 14.8653 209.45 14.8243 209.051 14.7634C208.923 14.7424 208.796 14.7204 208.669 14.6952C207.651 14.501 206.681 14.1671 205.779 13.7136C204.973 13.3084 204.22 12.8087 203.536 12.2271C202.961 11.74 202.434 11.1962 201.964 10.602C201.943 10.5768 201.923 10.5505 201.903 10.5253C201.876 10.5684 201.85 10.6114 201.828 10.6566C201.499 11.2476 201.313 11.931 201.313 12.6596C201.313 12.6817 201.312 12.7058 201.314 12.7278C201.322 13.2737 201.434 13.7934 201.636 14.2658C201.721 14.4758 201.826 14.6742 201.945 14.8621C202.298 15.4196 202.78 15.8836 203.348 16.2048C203.374 16.2216 203.4 16.2353 203.427 16.2479C203.386 16.2563 203.344 16.2636 203.302 16.2678C203.186 16.2836 203.065 16.292 202.944 16.292C202.339 16.292 201.776 16.0977 201.315 15.767C201.311 15.8017 201.311 15.8374 201.311 15.8731C201.311 17.03 201.784 18.0735 202.54 18.8094C203.129 19.3868 203.891 19.7742 204.738 19.8876C204.433 20.002 204.104 20.0639 203.761 20.0639C203.39 20.0639 203.034 19.9915 202.709 19.8582C203.194 21.4759 204.638 22.6622 206.36 22.7147C205.308 23.8369 203.831 24.534 202.196 24.534C201.18 24.534 200.225 24.2642 199.396 23.7918C201.387 25.5607 203.983 26.6294 206.822 26.6294C213.097 26.6294 218.182 21.4077 218.182 14.965C218.182 14.6102 218.167 14.2595 218.136 13.9131C219.174 13.4921 219.997 12.6323 220.387 11.5542V11.5531Z" fill="#FEFADB"/>
<path d="M131.579 18.2321C131.579 27.44 124.931 35.0521 116.296 36.2878C115.488 36.4032 114.662 36.4631 113.824 36.4631C112.855 36.4631 111.906 36.3833 110.979 36.23C102.526 34.8327 96.0684 27.3056 96.0684 18.231C96.0684 8.16228 104.018 0 113.824 0C123.63 0 131.579 8.16228 131.579 18.231V18.2321Z" fill="#002B00"/>
<path d="M122.511 13.1298V16.6131C121.917 16.5543 121.148 16.4157 120.295 16.0945C119.181 15.6756 118.352 15.1024 117.81 14.6583V21.7004L117.797 21.6784C117.806 21.818 117.81 21.9597 117.81 22.1036C117.81 25.6015 115.039 28.4476 111.632 28.4476C108.224 28.4476 105.453 25.6005 105.453 22.1036C105.453 18.6067 108.224 15.7585 111.632 15.7585C111.965 15.7585 112.292 15.7858 112.612 15.8383V19.2722C112.304 19.1589 111.975 19.098 111.632 19.098C110.018 19.098 108.704 20.4459 108.704 22.1036C108.704 23.7612 110.018 25.1092 111.632 25.1092C113.245 25.1092 114.559 23.7602 114.559 22.1036C114.559 22.0416 114.558 21.9797 114.554 21.9178V8.23242H117.945C117.957 8.52742 117.97 8.82452 117.981 9.11951C118.003 9.70006 118.205 10.2575 118.555 10.7142C118.967 11.2506 119.575 11.8742 120.429 12.3718C121.229 12.8369 121.979 13.0364 122.511 13.1308V13.1298Z" fill="#FEFADB"/>
<path d="M179.612 18.2321C179.612 27.44 172.964 35.0521 164.329 36.2878C163.521 36.4032 162.695 36.4631 161.857 36.4631C160.889 36.4631 159.939 36.3833 159.012 36.23C150.559 34.8327 144.102 27.3056 144.102 18.231C144.102 8.16228 152.051 0 161.857 0C171.663 0 179.612 8.16228 179.612 18.231V18.2321Z" fill="#002B00"/>
<path d="M152.741 12.0749C152.267 11.6235 152.031 11.065 152.031 10.4005C152.031 9.73593 152.267 9.15223 152.741 8.70081C153.214 8.24939 153.824 8.02368 154.571 8.02368C155.318 8.02368 155.903 8.24939 156.376 8.70081C156.849 9.15223 157.085 9.71913 157.085 10.4005C157.085 11.0818 156.849 11.6235 156.376 12.0749C155.902 12.5263 155.301 12.752 154.571 12.752C153.841 12.752 153.214 12.5263 152.741 12.0749ZM156.686 14.6637V28.4971H152.43V14.6637H156.686Z" fill="#FEFFFC"/>
<path d="M170.86 16.03C171.787 17.0641 172.251 18.4844 172.251 20.2922V28.254H168.208V20.8539C168.208 19.9426 167.978 19.234 167.518 18.729C167.057 18.2241 166.439 17.9721 165.662 17.9721C164.885 17.9721 164.266 18.2251 163.806 18.729C163.346 19.234 163.116 19.9426 163.116 20.8539V28.254H159.049V14.6264H163.116V16.4342C163.528 15.8316 164.083 15.356 164.782 15.0054C165.479 14.6558 166.264 14.4805 167.136 14.4805C168.69 14.4805 169.931 14.998 170.859 16.031L170.86 16.03Z" fill="#FEFFFC"/>
<path d="M35.5106 18.2321C35.5106 27.44 28.8629 35.0521 20.2275 36.2878C19.4198 36.4032 18.5937 36.4631 17.7553 36.4631C16.7871 36.4631 15.8373 36.3833 14.911 36.23C6.4576 34.8327 0 27.3056 0 18.231C0 8.16228 7.94931 0 17.7553 0C27.5613 0 35.5106 8.16228 35.5106 18.231V18.2321Z" fill="#002B00"/>
<path d="M20.2274 14.6384V18.6098H25.0123L24.2547 23.9607H20.2274V36.2876C19.4197 36.4031 18.5935 36.4629 17.7552 36.4629C16.7869 36.4629 15.8371 36.3831 14.9108 36.2299V23.9607H10.498V18.6098H14.9108V13.7513C14.9108 10.7363 17.291 8.29126 20.2284 8.29126V8.29441C20.2366 8.29441 20.2447 8.29126 20.2529 8.29126H25.0133V12.9178H21.9031C20.9778 12.9178 20.2284 13.6873 20.2284 14.6374L20.2274 14.6384Z" fill="#FEFADB"/>
</svg>
