<svg width="121" height="121" viewBox="0 0 121 121" fill="none" xmlns="http://www.w3.org/2000/svg">
<path d="M50.4259 5.56517C55.1548 -1.74127 65.8452 -1.74128 70.5741 5.56517L73.8103 10.5653C76.517 14.7474 81.5262 16.8223 86.3974 15.779L92.2213 14.5317C100.732 12.7091 108.291 20.2684 106.468 28.7787L105.221 34.6026C104.178 39.4738 106.253 44.483 110.435 47.1897L115.435 50.4259C122.741 55.1548 122.741 65.8452 115.435 70.5741L110.435 73.8103C106.253 76.517 104.178 81.5262 105.221 86.3974L106.468 92.2213C108.291 100.732 100.732 108.291 92.2213 106.468L86.3974 105.221C81.5262 104.178 76.517 106.253 73.8103 110.435L70.5741 115.435C65.8452 122.741 55.1548 122.741 50.4259 115.435L47.1897 110.435C44.483 106.253 39.4738 104.178 34.6026 105.221L28.7787 106.468C20.2684 108.291 12.7091 100.732 14.5317 92.2213L15.779 86.3974C16.8223 81.5262 14.7474 76.517 10.5653 73.8103L5.56517 70.5741C-1.74127 65.8452 -1.74128 55.1548 5.56517 50.4259L10.5653 47.1897C14.7474 44.483 16.8223 39.4738 15.779 34.6026L14.5317 28.7787C12.7091 20.2684 20.2684 12.7091 28.7787 14.5317L34.6026 15.779C39.4738 16.8223 44.483 14.7474 47.1897 10.5653L50.4259 5.56517Z" fill="#E84029"/>
</svg>
