<svg width="168" height="167" viewBox="0 0 168 167" fill="none" xmlns="http://www.w3.org/2000/svg">
<g filter="url(#filter0_d_41_3164)">
<path d="M73.8092 157.156C33.6529 152.119 5.62794 114.815 11.3215 74.011C17.0151 33.2065 54.3182 4.09827 94.4631 9.13427C134.608 14.1703 162.644 51.475 156.951 92.2795C151.257 133.084 113.954 162.192 73.8092 157.156Z" fill="#239FFF"/>
<path d="M93.0638 19.1675C127.773 23.523 151.995 55.766 147.076 91.0344C142.156 126.303 109.916 151.46 75.218 147.106C40.5201 142.752 16.2867 110.508 21.2062 75.2396C26.1257 39.9713 58.366 14.8135 93.0638 19.1675ZM93.5485 15.6928C56.9591 11.1014 22.9754 37.6196 17.7877 74.8106C12.6 112.002 38.1439 145.99 74.7333 150.581C111.323 155.173 145.306 128.654 150.494 91.4633C155.682 54.2723 130.138 20.2842 93.5485 15.6928Z" fill="#001A2F"/>
<path d="M67.6812 58.9435C67.3821 60.6139 67.005 63.2164 66.6614 65.5876C66.3177 67.9589 65.9239 70.6771 65.7117 72.5346C64.096 72.2792 62.4719 72.0817 60.9681 71.84C59.1384 84.8596 57.1663 98.8623 56.7948 101.819C55.1959 101.448 52.5077 101.121 50.6036 100.889C48.6995 100.658 46.0673 100.337 44.3061 100.3C44.9015 97.3706 46.9857 83.3815 48.8714 70.3687C47.2949 70.2358 45.6708 70.0383 44.0383 69.8986C44.3625 68.0547 44.7648 65.2787 45.1 62.9653C45.4352 60.6519 45.8208 57.9915 46.0078 56.3075L67.6812 58.9435Z" fill="#001A2F"/>
<path d="M77.5694 105.249C67.2767 103.996 63.9581 97.6951 66.5138 80.1372C69.0696 62.5793 74.5026 59.4661 84.0641 60.6295C93.6256 61.7929 98.0718 66.6389 95.592 83.6753C93.1122 100.712 87.8058 106.494 77.5694 105.249ZM83.9017 82.1939C85.2428 72.9803 84.5791 71.2483 82.5543 71.002C80.5295 70.7556 79.3372 72.2618 77.9961 81.4753C76.5537 91.3842 77.2793 93.4776 79.2479 93.7171C81.2164 93.9566 82.4593 92.1028 83.9017 82.1939Z" fill="#001A2F"/>
<path d="M116.814 65.5867C124.792 66.5573 127.855 69.877 125.875 83.4871C123.896 97.0974 120.666 100.83 110.721 99.6202C110.103 99.545 109.036 99.4151 107.976 99.2273C107.567 102.832 107.216 106.031 107.014 108.6L95.4958 107.198C96.5178 100.957 97.419 94.7601 98.7665 85.4936C100.114 76.227 101.032 69.9142 101.812 63.7615L116.814 65.5867ZM115.251 83.0197C116.245 76.1856 115.393 74.9622 112.921 74.6614C112.584 74.6204 112.022 74.552 111.396 74.5347C110.613 79.9209 109.855 85.1333 109.22 89.8892C109.605 89.995 109.998 90.0429 110.504 90.1044C113.369 90.453 114.341 89.2746 115.251 83.0197Z" fill="#001A2F"/>
<path d="M64.0081 49.1231C64.4523 46.0453 66.049 43.9446 67.7699 44.1552C68.3998 44.2323 68.7517 44.5697 68.8979 44.5876C69.0554 44.6069 69.1038 44.2714 69.3513 44.3016C69.5087 44.3209 69.5787 44.4708 69.6152 44.8521L69.7615 46.0592C69.8496 46.7177 69.8528 47.0124 69.8328 47.1513C69.8127 47.2901 69.7094 47.3717 69.5857 47.3566C69.462 47.3414 69.3853 47.2378 69.2983 46.9681C68.9595 45.9846 68.5487 44.9452 67.6826 44.8392C66.4566 44.6892 65.4361 46.6838 65.0921 49.0674C64.7263 51.6014 65.2048 53.5204 66.7907 53.7145C67.5331 53.8054 67.8515 53.5029 67.9049 53.1326L68.2356 50.8416C68.3675 49.9275 67.723 50.1901 67.7914 49.7157C67.8115 49.5768 67.9182 49.4722 68.0869 49.4928L69.6616 49.6855C69.8416 49.7076 69.9069 49.8098 69.8836 49.9718C69.8201 50.4115 69.3236 50.0445 69.1917 50.9586L68.8894 53.0529C68.8075 53.6199 69.0217 53.5637 68.9816 53.8414C68.9649 53.9571 68.8616 54.0386 68.6907 54.1119C68.2974 54.2993 67.5179 54.5453 66.6293 54.4366C64.4585 54.1709 63.5659 52.107 64.0002 49.0986L64.0081 49.1231Z" fill="#001A2F"/>
<path d="M70.6833 51.3423C70.9768 49.3138 72.2415 47.7935 73.9113 47.998C75.4006 48.1803 76.2352 49.7926 75.9267 51.9255C75.6349 53.9425 74.3606 55.4498 72.7021 55.2467C71.2128 55.0643 70.3765 53.4637 70.685 51.3308L70.6833 51.3423ZM74.899 52.2833C75.1807 50.3359 74.6105 48.7206 73.6177 48.5991C72.6248 48.4775 71.9123 49.5935 71.7111 50.9845C71.4311 52.9204 71.982 54.5097 72.9861 54.6327C73.9902 54.7556 74.6961 53.686 74.899 52.2833Z" fill="#001A2F"/>
<path d="M82.2712 55.6204C82.2376 55.8526 82.0382 55.9581 81.3879 56.0793C80.9155 56.1632 80.7392 56.1889 80.6374 56.1764C80.4566 56.1543 80.4608 55.9658 80.4944 55.7336L80.6154 54.8978C80.092 55.7316 79.4307 56.0877 78.7071 55.9991C77.554 55.8579 77.1542 54.8047 77.3794 53.2492L77.766 50.5792C77.887 49.7434 77.0226 49.992 77.0932 49.5044C77.1218 49.3071 77.3212 49.2016 77.9511 48.9833C78.4109 48.827 78.5776 48.7883 78.6907 48.8022C78.8715 48.8243 78.8949 48.9808 78.8563 49.2478L78.2915 53.1482C78.0982 54.4832 78.3466 55.1516 79.0927 55.243C79.9067 55.3426 80.668 54.4553 80.8513 53.19L81.1706 50.9844C81.2916 50.1486 80.3481 50.3874 80.4187 49.8999C80.4473 49.7025 80.6466 49.597 81.3687 49.3782C81.8268 49.2335 81.9935 49.1949 82.1066 49.2087C82.2875 49.2309 82.3108 49.3873 82.2721 49.6543L81.5712 54.495C81.4536 55.3076 82.3041 55.2345 82.2486 55.6176L82.2712 55.6204Z" fill="#001A2F"/>
<path d="M88.152 50.4855C88.1253 50.6707 88.0076 51.0098 87.8136 51.4808C87.7272 51.6823 87.6283 51.8116 87.482 51.7937C87.3469 51.7771 87.2815 51.6749 87.2541 51.3888C87.2101 50.9003 87.1109 50.7939 86.9083 50.7691C86.3455 50.7002 85.2937 51.7966 84.9961 53.8573L84.8023 55.2002C84.6351 56.3579 85.4815 56.0492 85.4164 56.5007C85.3996 56.6165 85.3008 56.7457 85.1545 56.7278C84.9068 56.6975 84.5533 56.6071 84.1594 56.5588C83.8104 56.5161 83.4999 56.5252 83.286 56.499C83.1284 56.4797 83.0809 56.3325 83.0976 56.2167C83.1578 55.8 83.7588 56.2388 83.9243 55.0927L84.4475 51.4692C84.5678 50.6356 83.7727 50.986 83.8395 50.5229C83.8663 50.3377 84.0631 50.2439 84.6519 49.9744C85.2277 49.715 85.3098 49.7015 85.3999 49.7126C85.58 49.7346 85.5757 49.9226 85.5423 50.1541L85.3334 51.6012C85.8444 50.521 86.6897 49.8234 87.5227 49.9254C87.9391 49.9764 88.213 50.222 88.1712 50.5114L88.152 50.4855Z" fill="#001A2F"/>
<path d="M96.7702 57.9849C96.7432 58.1716 96.6081 58.2263 96.4605 58.2082C96.1879 58.1748 95.9902 58.1031 95.5814 58.0531C95.1725 58.003 94.9727 58.026 94.6888 57.9912C94.5298 57.9718 94.4298 57.8645 94.4551 57.6896C94.5142 57.2813 95.1369 57.69 95.2686 56.7801C95.2754 56.7334 95.3024 56.5467 95.3062 56.4404L95.4101 53.8056C95.4467 52.7535 95.4699 51.7947 94.6976 51.7001C93.9708 51.6111 93.4563 52.4504 93.2639 53.7803L92.901 56.2883C92.7322 57.4548 93.4562 57.1636 93.3955 57.5836C93.3786 57.7002 93.2788 57.8305 93.1426 57.8138C92.9154 57.786 92.6156 57.7017 92.2521 57.6572C91.8887 57.6127 91.6207 57.6274 91.405 57.601C91.246 57.5815 91.1754 57.4304 91.1922 57.3138C91.253 56.8938 91.8367 57.3333 92.0038 56.1784L92.3988 53.4488C92.5287 52.5505 92.5608 51.4503 91.6863 51.3433C91.0844 51.2696 90.3097 51.9108 90.1004 53.3573L89.7324 55.9003C89.5636 57.0668 90.2763 56.7742 90.2156 57.1942C90.2021 57.2875 90.1103 57.4425 89.9626 57.4244C89.7469 57.398 89.447 57.3137 89.0836 57.2692C88.7201 57.2247 88.4408 57.238 88.2023 57.2088C88.0547 57.1907 87.9954 57.041 88.0123 56.9244C88.0731 56.5044 88.6794 56.9467 88.8466 55.7918L89.3749 52.1406C89.4964 51.3007 88.6941 51.6536 88.7616 51.1869C88.7886 51.0003 88.9872 50.9059 89.5813 50.6344C90.1624 50.3731 90.2452 50.3595 90.3361 50.3706C90.5178 50.3929 90.5135 50.5823 90.4797 50.8156L90.3616 51.6322C90.7337 50.9773 91.386 50.4636 92.1583 50.5581C92.9305 50.6527 93.2516 51.3094 93.34 52.0563L93.3514 52.0577C93.8119 51.2711 94.3615 50.8279 95.111 50.9197C96.2808 51.063 96.4131 52.3851 96.3588 53.3994L96.2227 56.5763C96.1649 57.9345 96.8406 57.578 96.7765 58.0213L96.7702 57.9849Z" fill="#001A2F"/>
<path d="M102.36 57.5501C102.343 57.6659 102.307 57.7558 102.22 57.8865C101.761 58.5966 100.877 59.0069 100.02 58.902C98.6006 58.7282 97.5549 57.3152 97.9348 54.6859C98.2026 52.8327 99.312 51.4243 100.912 51.6203C102.005 51.7541 102.817 52.9616 102.574 54.6411C102.552 54.7917 102.48 54.9715 102.303 55.0087L98.8417 55.5514C98.877 57.0528 99.4401 58.0766 100.387 58.1925C100.939 58.2601 101.47 57.9126 101.882 57.4444C101.992 57.3164 102.055 57.277 102.179 57.2922C102.292 57.306 102.382 57.3995 102.357 57.5732L102.36 57.5501ZM98.919 54.3821C98.8922 54.5674 98.8654 54.7527 98.8516 54.9279L101.27 54.5403C101.552 54.4924 101.628 54.4427 101.661 54.2111C101.815 53.1454 101.254 52.3459 100.623 52.2686C99.598 52.143 99.0964 53.1543 98.919 54.3821Z" fill="#001A2F"/>
<path d="M108.032 58.3076C108.015 58.4235 107.979 58.5134 107.891 58.6441C107.433 59.3542 106.548 59.7645 105.692 59.6596C104.272 59.4857 103.227 58.0728 103.607 55.4435C103.874 53.5902 104.984 52.1819 106.584 52.3778C107.677 52.5117 108.488 53.7192 108.246 55.3987C108.224 55.5492 108.152 55.729 107.975 55.7663L104.514 56.309C104.549 57.8104 105.112 58.8341 106.058 58.95C106.61 59.0177 107.142 58.6702 107.554 58.202C107.664 58.074 107.727 58.0346 107.851 58.0498C107.964 58.0636 108.054 58.1571 108.028 58.3308L108.032 58.3076ZM104.602 55.141C104.575 55.3264 104.549 55.5117 104.535 55.6868L106.953 55.2993C107.235 55.2513 107.311 55.2017 107.344 54.97C107.498 53.9044 106.937 53.1048 106.306 53.0276C105.281 52.902 104.78 53.9133 104.602 55.141Z" fill="#001A2F"/>
<path d="M112.48 59.2162C112.462 59.3433 112.384 59.4866 112.222 59.6665C111.788 60.1539 111.231 60.3089 110.705 60.2446C109.955 60.1528 109.421 59.5939 109.513 58.9471L110.252 53.7963L109.581 53.7142C109.402 53.6923 109.317 53.5645 109.339 53.4143C109.359 53.2757 109.449 53.2045 109.644 53.1109C110.301 52.8153 110.606 52.4412 111.012 51.0338C111.098 50.7505 111.19 50.5855 111.369 50.6074C111.526 50.6266 111.599 50.753 111.553 51.0764L111.238 53.2707L112.972 53.4829C113.095 53.498 113.143 53.5626 113.131 53.6434C113.119 53.7243 113.088 53.8615 113.067 53.9294C113.023 54.0768 112.95 54.1148 112.849 54.1025L111.16 53.8957L110.516 58.3882C110.396 59.2197 110.718 59.5176 111.076 59.5614C111.501 59.6135 111.85 59.2448 112.035 59.0677C112.129 58.9618 112.248 58.9293 112.326 58.9389C112.461 58.9553 112.522 59.0804 112.501 59.2305L112.48 59.2162Z" fill="#001A2F"/>
<path d="M57.5676 110.642C57.2975 112.517 56.1028 113.818 53.9549 113.555C53.3364 113.479 53.1106 113.299 53.0723 113.565L52.8089 115.393C52.6722 116.342 53.4852 116.1 53.4135 116.597C53.3969 116.713 53.3031 116.807 53.1345 116.787C52.9095 116.759 52.5338 116.666 52.129 116.616C51.7691 116.572 51.4701 116.583 51.2564 116.557C51.099 116.537 51.0482 116.413 51.0632 116.309C51.1316 115.835 51.6938 116.222 51.8272 115.296L52.8742 108.03C53.0059 107.116 52.3537 107.354 52.4204 106.891C52.4387 106.764 52.5324 106.67 52.7011 106.69C52.9147 106.717 53.178 106.796 53.5491 106.841C53.9652 106.892 54.4475 106.881 54.9086 106.937C56.9103 107.183 57.856 108.641 57.5659 110.654L57.5676 110.642ZM56.488 110.51C56.7181 108.913 56.1197 107.745 54.7927 107.583C53.938 107.478 53.8747 107.917 53.8147 108.334L53.2545 112.221C53.1945 112.638 53.3735 112.825 53.9358 112.894C55.4427 113.078 56.265 111.978 56.4768 110.509L56.488 110.51Z" fill="#001A2F"/>
<path d="M62.6413 111.406C62.6146 111.591 62.4969 111.93 62.3029 112.401C62.2166 112.603 62.1177 112.732 61.9714 112.714C61.8363 112.698 61.7708 112.595 61.7433 112.309C61.6992 111.821 61.6 111.714 61.3973 111.69C60.8344 111.621 59.7826 112.717 59.4853 114.777L59.2916 116.12C59.1246 117.278 59.9712 116.969 59.906 117.421C59.8893 117.536 59.7905 117.666 59.6441 117.648C59.3964 117.617 59.0429 117.527 58.6488 117.479C58.2998 117.436 57.9891 117.445 57.7752 117.419C57.6176 117.399 57.5701 117.252 57.5868 117.136C57.6469 116.72 58.2481 117.159 58.4135 116.013L58.9362 112.389C59.0564 111.556 58.2611 111.906 58.3279 111.443C58.3547 111.258 58.5515 111.164 59.1403 110.895C59.7162 110.635 59.7984 110.622 59.8885 110.633C60.0686 110.655 60.0644 110.843 60.031 111.074L59.8222 112.521C60.3332 111.441 61.1786 110.744 62.0117 110.846C62.4283 110.897 62.7022 111.143 62.6604 111.432L62.6413 111.406Z" fill="#001A2F"/>
<path d="M62.7854 114.628C63.0785 112.6 64.3433 111.079 66.0134 111.284C67.5029 111.467 68.338 113.079 68.0298 115.212C67.7383 117.228 66.4639 118.736 64.8051 118.532C63.3156 118.35 62.4789 116.749 62.7871 114.616L62.7854 114.628ZM67.0019 115.569C67.2833 113.622 66.7129 112.007 65.7198 111.885C64.7268 111.763 64.0142 112.879 63.8132 114.27C63.5335 116.206 64.0848 117.795 65.0891 117.918C66.0934 118.041 66.7992 116.972 67.0019 115.569Z" fill="#001A2F"/>
<path d="M74.4319 118.838C74.4036 119.034 74.2038 119.151 73.6067 119.325C73.1046 119.476 72.9726 119.518 72.849 119.503C72.6579 119.48 72.6995 119.191 72.7179 119.063L72.8212 118.346C72.3615 118.996 71.6637 119.393 70.8319 119.291C69.6178 119.143 68.7254 117.715 69.0387 115.541C69.352 113.367 70.6574 112.008 72.0849 112.183C72.7706 112.267 73.2602 112.68 73.5645 113.188L73.9195 110.725C74.0412 109.88 73.1393 110.264 73.2143 109.744C73.241 109.559 73.4342 109.488 74.0654 109.236C74.6595 109.003 74.769 108.957 74.8702 108.97C75.005 108.986 75.0525 109.133 75.0342 109.26L73.8109 117.75C73.6909 118.582 74.4824 118.409 74.4207 118.836L74.4319 118.838ZM73.0891 116.567L73.2407 115.514C73.4774 113.872 72.7177 112.872 71.9758 112.782C70.9866 112.66 70.2542 113.854 70.0425 115.322C69.7642 117.254 70.4697 118.47 71.3015 118.572C71.9985 118.657 72.8724 118.07 73.0874 116.578L73.0891 116.567Z" fill="#001A2F"/>
<path d="M81.0544 119.799C81.0208 120.031 80.8214 120.137 80.171 120.258C79.6985 120.342 79.5222 120.367 79.4205 120.355C79.2396 120.333 79.2438 120.144 79.2774 119.912L79.3983 119.076C78.8749 119.91 78.2135 120.266 77.4898 120.177C76.3365 120.036 75.9365 118.983 76.1615 117.428L76.5477 114.758C76.6686 113.922 75.8041 114.171 75.8746 113.683C75.9032 113.486 76.1026 113.38 76.7325 113.162C77.1924 113.006 77.3591 112.967 77.4722 112.981C77.6531 113.003 77.6765 113.16 77.6379 113.427L77.0737 117.327C76.8806 118.662 77.1291 119.33 77.8754 119.421C78.6895 119.521 79.4508 118.634 79.6338 117.369L79.9529 115.163C80.0738 114.328 79.1301 114.566 79.2006 114.079C79.2292 113.881 79.4286 113.776 80.1507 113.557C80.6089 113.413 80.7756 113.374 80.8887 113.388C81.0696 113.41 81.093 113.566 81.0544 113.833L80.3542 118.674C80.2366 119.486 81.0872 119.413 81.0318 119.796L81.0544 119.799Z" fill="#001A2F"/>
<path d="M82.2874 117.277C82.5999 115.112 83.8937 113.692 85.5493 113.895C86.4729 114.008 87.1389 114.714 87.067 115.212C87.0269 115.49 86.8884 115.815 86.5221 116.288C86.4232 116.417 86.3585 116.468 86.2459 116.455C86.1332 116.441 86.0223 116.415 86.0128 116.084C85.9863 114.997 85.797 114.561 85.155 114.483C84.2315 114.37 83.5046 115.435 83.2623 117.114C83.0201 118.793 83.6096 120.267 84.6345 120.393C85.1751 120.459 85.6466 120.211 86.0634 119.625C86.164 119.485 86.2737 119.439 86.375 119.452C86.5102 119.468 86.5757 119.57 86.5573 119.698C86.5339 119.86 86.4721 119.97 86.407 120.104C86.0123 120.774 85.2563 121.247 84.2089 121.118C82.9024 120.958 81.9437 119.58 82.2762 117.276L82.2874 117.277Z" fill="#001A2F"/>
<path d="M90.9507 120.669C90.9325 120.796 90.8551 120.939 90.6927 121.119C90.2585 121.606 89.7011 121.761 89.1752 121.697C88.4254 121.605 87.8906 121.046 87.9833 120.399L88.7212 115.249L88.0498 115.166C87.8708 115.145 87.7866 115.017 87.8081 114.867C87.828 114.728 87.9178 114.657 88.1134 114.563C88.7707 114.268 89.0748 113.894 89.4813 112.486C89.5675 112.203 89.6594 112.038 89.8385 112.06C89.9951 112.079 90.0681 112.206 90.0218 112.529L89.7091 114.712L91.4436 114.924C91.5667 114.939 91.6143 115.004 91.6028 115.085C91.5912 115.165 91.5602 115.303 91.539 115.371C91.4951 115.518 91.4214 115.556 91.3207 115.544L89.6309 115.337L88.9873 119.829C88.8682 120.66 89.1899 120.958 89.548 121.002C89.9732 121.054 90.322 120.686 90.5068 120.509C90.6017 120.403 90.7203 120.37 90.7986 120.38C90.9329 120.396 90.9947 120.521 90.9732 120.671L90.9507 120.669Z" fill="#001A2F"/>
<path d="M96.3148 121.072C96.298 121.188 96.2621 121.278 96.1744 121.408C95.7164 122.118 94.8314 122.529 93.9749 122.424C92.5549 122.25 91.5088 120.837 91.8884 118.208C92.1559 116.354 93.2653 114.946 94.8656 115.142C95.9588 115.276 96.7708 116.484 96.5283 118.163C96.5066 118.314 96.4347 118.494 96.2573 118.531L92.7957 119.073C92.8312 120.574 93.3945 121.598 94.3411 121.714C94.8933 121.782 95.4252 121.434 95.8369 120.966C95.9471 120.838 96.0101 120.799 96.1341 120.814C96.2468 120.828 96.3365 120.921 96.3114 121.095L96.3148 121.072ZM92.8727 117.904C92.8459 118.089 92.8192 118.274 92.8054 118.45L95.2239 118.062C95.5061 118.014 95.5821 117.965 95.6155 117.733C95.7694 116.668 95.2081 115.868 94.577 115.791C93.5515 115.665 93.05 116.676 92.8727 117.904Z" fill="#001A2F"/>
<path d="M102.836 122.71C102.802 122.942 102.603 123.048 101.952 123.169C101.48 123.253 101.303 123.278 101.202 123.266C101.021 123.244 101.025 123.055 101.059 122.823L101.18 121.987C100.656 122.821 99.9947 123.177 99.2711 123.088C98.1177 122.947 97.7177 121.894 97.9427 120.339L98.3289 117.669C98.4498 116.833 97.5853 117.082 97.6559 116.594C97.6844 116.397 97.8838 116.291 98.5137 116.073C98.9736 115.917 99.1403 115.878 99.2534 115.892C99.4343 115.914 99.4577 116.071 99.4191 116.338L98.8549 120.238C98.6618 121.573 98.9103 122.241 99.6566 122.332C100.471 122.432 101.232 121.545 101.415 120.28L101.734 118.074C101.855 117.239 100.911 117.477 100.982 116.99C101.01 116.793 101.21 116.687 101.932 116.468C102.39 116.324 102.557 116.285 102.67 116.299C102.851 116.321 102.874 116.477 102.836 116.744L102.135 121.585C102.018 122.397 102.868 122.324 102.813 122.707L102.836 122.71Z" fill="#001A2F"/>
<path d="M108.719 117.564C108.693 117.749 108.575 118.088 108.381 118.559C108.295 118.761 108.196 118.89 108.049 118.872C107.914 118.856 107.849 118.753 107.821 118.467C107.777 117.979 107.678 117.872 107.475 117.848C106.913 117.779 105.861 118.875 105.563 120.935L105.37 122.278C105.203 123.436 106.049 123.127 105.984 123.579C105.967 123.695 105.869 123.824 105.722 123.806C105.475 123.775 105.121 123.685 104.727 123.637C104.378 123.594 104.067 123.603 103.853 123.577C103.696 123.557 103.648 123.41 103.665 123.295C103.725 122.878 104.326 123.317 104.492 122.171L105.014 118.547C105.135 117.714 104.339 118.064 104.406 117.601C104.433 117.416 104.63 117.322 105.218 117.053C105.794 116.793 105.877 116.78 105.967 116.791C106.147 116.813 106.143 117.001 106.109 117.233L105.9 118.68C106.411 117.599 107.257 116.902 108.09 117.004C108.506 117.055 108.78 117.301 108.739 117.59L108.719 117.564Z" fill="#001A2F"/>
</g>
<defs>
<filter id="filter0_d_41_3164" x="6.58594" y="8.56787" width="155.098" height="157.155" filterUnits="userSpaceOnUse" color-interpolation-filters="sRGB">
<feFlood flood-opacity="0" result="BackgroundImageFix"/>
<feColorMatrix in="SourceAlpha" type="matrix" values="0 0 0 0 0 0 0 0 0 0 0 0 0 0 0 0 0 0 127 0" result="hardAlpha"/>
<feOffset dy="4"/>
<feGaussianBlur stdDeviation="2"/>
<feComposite in2="hardAlpha" operator="out"/>
<feColorMatrix type="matrix" values="0 0 0 0 0 0 0 0 0 0 0 0 0 0 0 0 0 0 0.25 0"/>
<feBlend mode="normal" in2="BackgroundImageFix" result="effect1_dropShadow_41_3164"/>
<feBlend mode="normal" in="SourceGraphic" in2="effect1_dropShadow_41_3164" result="shape"/>
</filter>
</defs>
</svg>
