<svg width="191" height="151" viewBox="0 0 191 151" fill="none" xmlns="http://www.w3.org/2000/svg">
<path d="M87.3832 140.397C64.77 137.698 44.1183 128.838 29.2311 115.448C13.2192 101.037 5.59028 83.119 7.75566 64.9781C9.92104 46.8371 21.5518 31.2286 40.4958 20.9897C58.1163 11.4799 80.2732 7.7302 102.897 10.4306C125.52 13.131 146.161 21.9893 161.049 35.3794C177.062 49.7806 184.679 67.7073 182.515 85.8381C180.351 103.969 168.718 119.598 149.775 129.826C132.154 139.336 109.998 143.086 87.3844 140.387L87.3832 140.397Z" fill="#E84029"/>
<path d="M101.845 19.2467C122.661 21.7313 141.582 29.8068 155.12 41.9838C168.918 54.3982 175.531 69.606 173.719 84.7879C171.907 99.9697 161.91 113.195 145.568 122.012C129.544 130.66 109.253 134.055 88.438 131.57C67.6229 129.086 48.7013 121.01 35.1633 108.833C21.3551 96.4176 14.7523 81.2111 16.5645 66.0292C18.3767 50.8473 28.3731 37.6222 44.7158 28.8055C60.7395 20.157 81.0303 16.7622 101.845 19.2467ZM102.21 16.1961C80.7748 13.6376 59.8311 17.1505 43.2557 26.1044C26.0097 35.4114 15.4504 49.4667 13.5169 65.6655C11.5833 81.8642 18.5364 98.0202 33.1073 111.125C47.1107 123.719 66.6277 132.071 88.0727 134.631C109.518 137.191 130.451 133.677 147.026 124.723C164.273 115.416 174.832 101.361 176.767 85.1516C178.701 68.9427 171.746 52.8071 157.176 39.6921C143.173 27.0985 123.656 18.7457 102.211 16.186L102.21 16.1961Z" fill="#350E08"/>
<path d="M28.913 87.6559C29.6591 82.2685 30.34 76.5638 31.3159 68.3882C32.2918 60.2126 32.9788 54.4571 33.5156 49.0962L43.9689 50.3439C43.2289 55.6806 42.5479 61.3852 41.572 69.5608C40.5962 77.7365 39.96 83.498 39.3662 88.9037L28.913 87.6559Z" fill="#350E08"/>
<path d="M71.2827 53.6046C70.8801 56.1143 69.8109 64.6398 68.8351 72.8154C67.8033 81.4588 67.1103 87.2652 66.6292 92.1583L56.4706 90.9457C55.9952 87.7639 55.1252 82.9674 54.1845 78.6781C53.7091 75.4963 53.4563 72.1761 53.3111 68.8172L53.112 68.845C52.8958 72.7281 52.5981 76.0857 52.275 79.2237C51.7078 84.8388 51.2405 88.7537 51.108 90.2953L42.3309 89.2476C43.002 84.0575 43.7011 78.2003 44.6831 69.9738C45.665 61.7473 46.4089 55.947 46.9336 50.6879L57.9761 52.0059C58.1463 54.3778 59.2595 60.5028 59.9397 66.1121C60.2582 68.4501 60.51 71.3473 60.6195 74.2275L60.7211 74.2397C60.9153 70.9728 61.1246 67.9244 61.4135 65.5042C61.9029 60.9731 62.4094 55.8664 62.6592 52.5649L71.2839 53.5944L71.2827 53.6046Z" fill="#350E08"/>
<path d="M98.5483 56.8592C98.1457 59.3689 97.0766 67.8944 96.1007 76.0701C95.069 84.7135 94.3759 90.5198 93.8949 95.4129L83.7362 94.2003C83.2608 91.0186 82.3909 86.222 81.4501 81.9327C80.9747 78.751 80.7219 75.4308 80.5767 72.0718L80.3777 72.0997C80.1614 75.9827 79.8637 79.3403 79.5406 82.4783C78.9734 88.0934 78.5061 92.0084 78.3736 93.5499L69.5966 92.5023C70.2676 87.3121 70.9667 81.4549 71.9487 73.2284C72.9306 65.002 73.6745 59.2017 74.1992 53.9425L85.2417 55.2606C85.4119 57.6324 86.5251 63.7575 87.2053 69.3668C87.5238 71.7047 87.7756 74.6019 87.8852 77.4822L87.9868 77.4943C88.1809 74.2275 88.3903 71.179 88.6791 68.7588C89.1685 64.2277 89.675 59.1211 89.9248 55.8196L98.5495 56.8491L98.5483 56.8592Z" fill="#350E08"/>
<path d="M108.777 97.7154C99.7564 96.6386 96.7236 91.0579 98.5832 75.4795C100.443 59.901 105.123 57.118 113.504 58.1184C121.885 59.1188 125.876 63.4009 124.071 78.5218C122.266 93.6427 117.747 98.7861 108.777 97.7154ZM113.817 77.2463C114.793 69.0706 114.173 67.5321 112.405 67.3211C110.638 67.1101 109.622 68.4534 108.646 76.6291C107.596 85.425 108.271 87.2795 109.998 87.4857C111.725 87.6918 112.767 86.0422 113.817 77.2463Z" fill="#350E08"/>
<path d="M151.366 63.1634C148.83 72.6689 143.449 96.4285 142.221 101.191C140.443 100.979 137.652 100.543 134.492 100.166C130.206 99.6539 127.782 99.4161 126.638 99.3311C126.651 94.2171 126.879 69.6877 126.66 60.2144L137.113 61.4621C136.804 64.9214 136.046 75.4127 135.768 84.043C135.754 86.2278 135.656 88.7739 135.591 90.9629L135.936 91.0041C136.387 88.8714 136.891 86.3738 137.335 84.2919C139.102 75.7879 141.057 65.2847 141.541 62.001L151.355 63.1723L151.366 63.1634Z" fill="#350E08"/>
<path d="M157.475 63.9442C158.857 64.1091 161.071 64.3735 162.56 64.4997C161.359 68.2651 157.986 79.3416 157.196 82.166C155.097 81.7091 151.551 80.863 149.541 80.52C150.469 76.9797 152.503 66.5789 152.94 63.3514C153.97 63.5259 155.697 63.732 157.475 63.9442Z" fill="#350E08"/>
<path d="M79.1678 45.8927C79.4943 43.1573 80.8915 41.2923 82.4661 41.4803C83.0452 41.5494 83.3704 41.846 83.5126 41.863C83.665 41.8812 83.7002 41.5863 83.9135 41.6118C84.0659 41.63 84.1224 41.7605 84.1636 42.1057L84.3243 43.1769C84.4188 43.7658 84.4393 44.026 84.4247 44.1481C84.4102 44.2701 84.318 44.3519 84.2062 44.3386C84.0945 44.3252 84.0229 44.2342 83.9379 43.9971C83.6095 43.1225 83.2048 42.1976 82.4124 42.103C81.2949 41.9696 80.4137 43.7415 80.16 45.8667C79.8906 48.1242 80.3782 49.8223 81.8309 49.9957C82.5115 50.0769 82.7905 49.8111 82.8306 49.4755L83.0733 47.4418C83.1704 46.6283 82.5968 46.8589 82.6466 46.442C82.6612 46.32 82.7546 46.228 82.907 46.2462L84.3495 46.4184C84.512 46.4378 84.5734 46.5276 84.5564 46.67C84.5091 47.0666 84.0441 46.7326 83.947 47.5461L83.7249 49.407C83.6642 49.9154 83.8567 49.8559 83.8264 50.1101C83.8143 50.2118 83.7233 50.2834 83.5701 50.358C83.2094 50.5315 82.5139 50.7476 81.7012 50.6506C79.7203 50.4141 78.8462 48.5874 79.1666 45.9029L79.1678 45.8927Z" fill="#350E08"/>
<path d="M85.1663 47.7948C85.3811 45.9949 86.4893 44.6523 88.0029 44.833C89.354 44.9943 90.1613 46.4314 89.9368 48.3126C89.7231 50.1023 88.6048 51.4437 87.1013 51.2642C85.7502 51.1029 84.9417 49.676 85.1663 47.7948ZM89.0223 48.6366C89.2286 46.908 88.6777 45.4808 87.7635 45.3717C86.8492 45.2625 86.2467 46.2529 86.0998 47.4833C85.8947 49.2018 86.4367 50.6176 87.3509 50.7267C88.2652 50.8359 88.8742 49.8772 89.0223 48.6366Z" fill="#350E08"/>
<path d="M95.6842 51.5152C95.6587 51.7288 95.4828 51.8212 94.8933 51.9262C94.4724 51.9997 94.305 52.021 94.2237 52.0113C94.0612 51.9919 94.0603 51.8268 94.0846 51.6234L94.1732 50.8811C93.7254 51.6115 93.1307 51.9324 92.4704 51.8536C91.424 51.7287 91.0307 50.7947 91.1957 49.4118L91.4785 47.0425C91.5672 46.3002 90.7879 46.5269 90.8401 46.0896C90.8608 45.9168 91.0367 45.8243 91.6054 45.6344C92.0234 45.4986 92.1616 45.4635 92.2733 45.4769C92.4359 45.4963 92.4709 45.6345 92.443 45.8684L92.0303 49.3258C91.8883 50.5155 92.1275 51.101 92.8081 51.1822C93.5497 51.2708 94.2205 50.4845 94.354 49.3659L94.5871 47.4135C94.6757 46.6712 93.8254 46.8894 93.8776 46.4522C93.8982 46.2793 94.0741 46.1869 94.7164 45.9851C95.1332 45.8595 95.2713 45.8244 95.3831 45.8378C95.5456 45.8572 95.5806 45.9954 95.5527 46.2293L95.0405 50.5205C94.9555 51.2323 95.7243 51.1797 95.6842 51.5152Z" fill="#350E08"/>
<path d="M100.81 46.8878C100.791 47.0505 100.693 47.3483 100.529 47.7722C100.457 47.9492 100.371 48.0627 100.239 48.0469C100.117 48.0324 100.056 47.9426 100.025 47.6811C99.9732 47.252 99.8724 47.1472 99.6895 47.1253C99.1714 47.0635 98.2414 48.0354 98.023 49.8658L97.8797 51.0657C97.7571 52.0927 98.5107 51.8217 98.4634 52.2183C98.4512 52.32 98.3656 52.4335 98.2233 52.4165C97.9999 52.3899 97.6695 52.3092 97.3139 52.2667C96.9888 52.2279 96.7199 52.2371 96.5167 52.2128C96.3643 52.1946 96.3179 52.0653 96.3301 51.9636C96.3738 51.5976 96.9253 51.9831 97.0467 50.9663L97.4315 47.7428C97.5201 47.0005 96.8124 47.3182 96.8622 46.9013C96.8816 46.7386 97.0575 46.6461 97.5803 46.4095C98.0918 46.1817 98.1755 46.1711 98.2567 46.1808C98.4193 46.2002 98.4202 46.3653 98.3959 46.5687L98.243 47.8499C98.687 46.8922 99.4311 46.2694 100.193 46.3603C100.579 46.4064 100.821 46.621 100.79 46.8854L100.81 46.8878Z" fill="#350E08"/>
<path d="M108.682 53.4482C108.662 53.6109 108.543 53.6586 108.411 53.6428C108.167 53.6137 107.989 53.5512 107.613 53.5064C107.238 53.4615 107.07 53.4828 106.806 53.4512C106.654 53.4331 106.572 53.3408 106.59 53.1883C106.633 52.8324 107.198 53.1886 107.294 52.3853C107.299 52.3446 107.319 52.1718 107.319 52.0892L107.349 49.762C107.357 48.8346 107.345 47.9875 106.654 47.905C106.004 47.8274 105.556 48.5578 105.415 49.7374L105.152 51.944C105.029 52.971 105.668 52.7172 105.624 53.0832C105.612 53.1849 105.526 53.2985 105.404 53.2839C105.191 53.2584 104.932 53.1862 104.596 53.1462C104.261 53.1062 104.023 53.119 103.83 53.096C103.677 53.0778 103.621 52.9473 103.633 52.8456C103.676 52.4795 104.218 52.8638 104.339 51.847L104.627 49.437C104.722 48.6438 104.724 47.6746 103.932 47.5801C103.393 47.5158 102.707 48.0837 102.555 49.3547L102.287 51.602C102.165 52.6291 102.793 52.374 102.749 52.7401C102.739 52.8214 102.661 52.9565 102.529 52.9407C102.336 52.9177 102.067 52.8443 101.732 52.8043C101.396 52.7643 101.148 52.7758 100.934 52.7504C100.802 52.7346 100.736 52.6029 100.748 52.5012C100.791 52.1351 101.343 52.5207 101.464 51.5038L101.849 48.2803C101.938 47.538 101.22 47.8546 101.27 47.4376C101.289 47.2749 101.465 47.1825 101.988 46.9458C102.499 46.7181 102.583 46.7074 102.664 46.7171C102.827 46.7365 102.828 46.9017 102.803 47.105L102.718 47.8168C103.034 47.246 103.614 46.7892 104.305 46.8717C104.995 46.9541 105.318 47.529 105.415 48.1902L105.425 48.1914C105.817 47.4957 106.306 47.1106 106.986 47.1918C108.043 47.3179 108.191 48.4908 108.179 49.3762L108.133 52.176C108.114 53.3701 108.718 53.0606 108.67 53.4572L108.682 53.4482Z" fill="#350E08"/>
<path d="M113.651 52.9896C113.639 53.0913 113.609 53.1702 113.533 53.285C113.129 53.9072 112.343 54.2774 111.561 54.1841C110.271 54.0301 109.277 52.7769 109.556 50.4381C109.751 48.801 110.727 47.5354 112.179 47.7088C113.175 47.8276 113.954 48.9003 113.776 50.385C113.761 50.5172 113.701 50.675 113.542 50.7077L110.414 51.1903C110.481 52.5288 111.023 53.4288 111.886 53.5319C112.394 53.5925 112.863 53.2875 113.233 52.8675C113.329 52.7552 113.384 52.7206 113.496 52.7339C113.598 52.7461 113.681 52.8282 113.662 52.9807L113.651 52.9896ZM110.453 50.1739C110.434 50.3366 110.413 50.5095 110.406 50.6531L112.6 50.3167C112.852 50.2746 112.919 50.231 112.945 50.0175C113.057 49.0718 112.533 48.3698 111.954 48.3007C111.02 48.1891 110.583 49.0859 110.453 50.1739Z" fill="#350E08"/>
<path d="M117.654 53.7351C117.641 53.8469 117.574 53.9731 117.432 54.1314C117.041 54.5591 116.54 54.6953 116.063 54.6383C115.372 54.5559 114.864 54.0621 114.933 53.4825L115.481 48.8964L114.861 48.8224C114.699 48.803 114.619 48.6904 114.635 48.5582C114.65 48.4362 114.729 48.3735 114.904 48.2912C115.503 48.0224 115.759 47.6919 116.103 46.4439C116.174 46.1945 116.253 46.0493 116.426 46.0699C116.579 46.0881 116.637 46.1982 116.602 46.4931L116.369 48.4455L117.954 48.6347C118.066 48.648 118.11 48.7049 118.102 48.7761C118.093 48.8473 118.069 48.9681 118.051 49.0279C118.015 49.1577 117.949 49.1911 117.858 49.1801L116.304 48.9946L115.827 52.9909C115.738 53.7332 116.047 53.997 116.362 54.0346C116.758 54.0819 117.054 53.7563 117.227 53.6016C117.31 53.5084 117.418 53.4697 117.489 53.4782C117.611 53.4927 117.67 53.6029 117.654 53.7351Z" fill="#350E08"/>
<path d="M67.683 105.249C67.7328 104.832 68.2486 105.172 68.3457 104.358L69.1079 97.9722C69.2038 97.1689 68.6225 97.3779 68.671 96.9712C68.6844 96.8593 68.7664 96.7763 68.9188 96.7945C69.1118 96.8175 69.3508 96.8873 69.686 96.9273C70.0212 96.9673 70.2902 96.9582 70.4731 96.98C70.6051 96.9958 70.6844 97.1084 70.6723 97.2101C70.6225 97.627 70.0978 97.2756 70.0019 98.0789L69.2396 104.465C69.1438 105.268 69.734 105.07 69.6843 105.487C69.6721 105.589 69.5901 105.672 69.4377 105.654C69.2549 105.632 68.9956 105.56 68.6604 105.52C68.3251 105.48 68.0663 105.49 67.8733 105.467C67.7311 105.45 67.6823 105.341 67.6932 105.25L67.683 105.249Z" fill="#350E08"/>
<path d="M75.7926 106.196C75.7731 106.358 75.6541 106.406 75.5221 106.39C75.2783 106.361 75.1003 106.299 74.7345 106.255C74.3688 106.211 74.1913 106.231 73.9373 106.201C73.7951 106.184 73.7032 106.091 73.7214 105.938C73.7639 105.582 74.3293 105.938 74.424 105.145C74.4288 105.105 74.4482 104.942 74.449 104.849L74.4759 102.552C74.4823 101.635 74.4587 100.797 73.7781 100.716C73.0974 100.635 72.5099 101.328 72.3715 102.487L72.1093 104.683C71.9879 105.7 72.616 105.445 72.5723 105.811C72.5626 105.892 72.4846 106.028 72.3526 106.012C72.1595 105.989 71.88 105.914 71.565 105.877C71.2501 105.839 70.971 105.847 70.778 105.824C70.6357 105.807 70.5894 105.678 70.6015 105.576C70.6452 105.21 71.1968 105.595 71.3169 104.589L71.6968 101.406C71.7842 100.674 71.0778 100.981 71.1263 100.575C71.1458 100.412 71.3204 100.33 71.8433 100.093C72.3547 99.8652 72.4282 99.8533 72.5095 99.863C72.6721 99.8824 72.6729 100.048 72.6487 100.251L72.5661 100.942C72.9522 100.297 73.4896 99.9387 74.1499 100.018C75.2064 100.144 75.3472 101.295 75.3241 102.179L75.282 104.949C75.2643 106.132 75.8578 105.822 75.8117 106.208L75.7926 106.196Z" fill="#350E08"/>
<path d="M81.523 106.879C81.5036 107.042 81.3846 107.09 81.2525 107.074C81.0087 107.045 80.8307 106.982 80.465 106.939C80.0993 106.895 79.9217 106.915 79.6678 106.885C79.5256 106.868 79.4337 106.774 79.4519 106.622C79.4944 106.266 80.0597 106.622 80.1544 105.829C80.1593 105.788 80.1787 105.626 80.1795 105.533L80.2063 103.236C80.2128 102.319 80.1892 101.481 79.5085 101.4C78.8279 101.318 78.2403 102.012 78.1019 103.171L77.8398 105.367C77.7184 106.384 78.3464 106.129 78.3027 106.495C78.293 106.576 78.2151 106.712 78.083 106.696C77.89 106.673 77.6104 106.598 77.2955 106.561C76.9806 106.523 76.7015 106.531 76.5084 106.508C76.3662 106.491 76.3198 106.362 76.332 106.26C76.3757 105.894 76.9272 106.279 77.0474 105.273L77.4273 102.09C77.5147 101.358 76.8083 101.665 76.8568 101.259C76.8762 101.096 77.0509 101.014 77.5737 100.777C78.0852 100.549 78.1587 100.537 78.24 100.547C78.4025 100.566 78.4034 100.731 78.3791 100.935L78.2966 101.626C78.6827 100.981 79.2201 100.623 79.8804 100.702C80.9369 100.828 81.0777 101.979 81.0545 102.863L81.0125 105.632C80.9948 106.816 81.5883 106.506 81.5421 106.892L81.523 106.879Z" fill="#350E08"/>
<path d="M82.3496 104.173C82.562 102.394 83.6588 101.06 85.1623 101.24C86.5032 101.4 87.2926 102.814 87.0693 104.685C86.8581 106.454 85.7524 107.777 84.259 107.598C82.9181 107.438 82.1275 106.034 82.3508 104.163L82.3496 104.173ZM86.156 104.999C86.36 103.29 85.8079 101.874 84.9139 101.767C84.0199 101.66 83.4085 102.639 83.2629 103.859C83.0602 105.558 83.5944 106.952 84.4985 107.06C85.4026 107.168 86.0092 106.229 86.156 104.999Z" fill="#350E08"/>
<path d="M92.9653 102.532C92.9216 102.898 92.4474 102.728 92.1941 103.296L90.1579 107.838C90.0601 108.053 90.0098 108.13 89.6542 108.087C89.3494 108.051 89.2803 107.94 89.2245 107.716L88.3111 102.853C88.1909 102.22 87.7061 102.224 87.7438 101.908C87.7596 101.776 87.8774 101.739 87.9891 101.752C88.2228 101.78 88.4312 101.846 88.8274 101.893C89.1728 101.935 89.4316 101.924 89.6247 101.947C89.7669 101.964 89.851 102.036 89.834 102.179C89.7928 102.524 89.2486 102.336 89.1879 102.844C89.1758 102.946 89.208 103.28 89.2488 103.542L89.8902 107.146L91.3516 103.793C91.4507 103.568 91.557 103.281 91.5752 103.129C91.6347 102.631 91.0853 102.658 91.1242 102.333C91.1436 102.17 91.25 102.141 91.3821 102.157C91.5751 102.18 91.8039 102.249 92.0477 102.278C92.3017 102.308 92.53 102.294 92.7637 102.322C92.8754 102.335 92.9811 102.399 92.9653 102.532Z" fill="#350E08"/>
<path d="M97.5975 108.612C97.5757 108.795 97.176 109.036 96.7696 108.988C96.4547 108.95 96.0901 108.639 96.0231 107.991C95.6642 108.495 94.9781 108.805 94.2568 108.719C93.2612 108.6 92.6436 107.732 92.7638 106.726C92.8839 105.719 93.7413 104.924 95.0009 105.074C95.3768 105.119 95.682 105.238 96.0462 105.467L96.0477 105.282C96.0592 104.582 96.0727 103.346 95.1077 103.231C94.6912 103.181 94.3382 103.376 93.8671 103.784C93.7521 103.884 93.6672 103.904 93.5961 103.896C93.4945 103.884 93.4116 103.802 93.4261 103.68C93.4358 103.598 93.4898 103.491 93.5869 103.369C94.0949 102.738 94.7965 102.471 95.4669 102.551C96.7571 102.705 96.8605 103.997 96.8562 105.069L96.841 107.181C96.8349 107.923 96.8554 108.183 97.4861 108.424C97.5852 108.456 97.6162 108.542 97.6077 108.614L97.5975 108.612ZM96.0232 107.3L96.0343 106.085C95.7181 105.799 95.3214 105.669 94.9963 105.631C94.2649 105.543 93.7048 105.92 93.6101 106.713C93.5215 107.455 93.8814 108.066 94.5316 108.143C95.1817 108.221 95.7634 107.836 96.0345 107.291L96.0232 107.3Z" fill="#350E08"/>
<path d="M101.26 108.462C101.247 108.574 101.18 108.7 101.038 108.859C100.657 109.287 100.156 109.424 99.6787 109.367C98.9981 109.285 98.5005 108.793 98.5685 108.223L99.1098 103.688L98.5003 103.615C98.3378 103.596 98.2585 103.483 98.2743 103.351C98.2888 103.229 98.3684 103.167 98.5431 103.084C99.1305 102.824 99.3965 102.495 99.7299 101.256C99.8008 101.007 99.88 100.861 100.043 100.881C100.185 100.898 100.254 101.009 100.22 101.294L99.9905 103.216L101.565 103.404C101.677 103.417 101.722 103.474 101.713 103.545C101.705 103.616 101.68 103.737 101.662 103.797C101.626 103.927 101.56 103.96 101.469 103.949L99.9351 103.766L99.4629 107.722C99.3756 108.454 99.6739 108.716 99.999 108.755C100.385 108.801 100.692 108.477 100.854 108.321C100.938 108.228 101.044 108.199 101.115 108.208C101.237 108.222 101.296 108.332 101.28 108.465L101.26 108.462Z" fill="#350E08"/>
<path d="M101.668 109.284C101.719 108.857 102.263 109.304 102.384 108.297L102.765 105.104C102.853 104.362 102.142 104.71 102.193 104.283C102.215 104.1 102.367 104.036 102.857 103.816C103.39 103.58 103.485 103.561 103.576 103.571C103.698 103.586 103.749 103.675 103.731 103.827L103.185 108.403C103.064 109.42 103.699 109.104 103.648 109.531C103.638 109.612 103.56 109.747 103.428 109.732C103.235 109.709 102.956 109.634 102.641 109.596C102.326 109.559 102.047 109.567 101.854 109.544C101.711 109.527 101.665 109.397 101.677 109.296L101.668 109.284ZM102.855 101.412C102.907 100.975 103.325 100.581 103.742 100.631C104.026 100.665 104.246 100.898 104.203 101.254C104.15 101.701 103.724 102.073 103.328 102.026C103.064 101.994 102.811 101.778 102.855 101.412Z" fill="#350E08"/>
<path d="M104.74 106.846C104.953 105.066 106.049 103.733 107.553 103.912C108.894 104.072 109.683 105.487 109.46 107.358C109.249 109.127 108.143 110.449 106.65 110.271C105.309 110.111 104.518 108.707 104.741 106.836L104.74 106.846ZM108.547 107.671C108.751 105.963 108.198 104.546 107.305 104.439C106.411 104.333 105.799 105.312 105.653 106.532C105.451 108.23 105.985 109.624 106.889 109.732C107.793 109.84 108.4 108.902 108.547 107.671Z" fill="#350E08"/>
<path d="M115.179 110.897C115.16 111.059 115.041 111.107 114.909 111.091C114.665 111.062 114.487 111 114.121 110.956C113.756 110.912 113.578 110.932 113.324 110.902C113.182 110.885 113.09 110.792 113.108 110.639C113.151 110.283 113.716 110.64 113.811 109.846C113.816 109.806 113.835 109.643 113.836 109.55L113.863 107.254C113.869 106.336 113.845 105.498 113.165 105.417C112.484 105.336 111.897 106.029 111.758 107.188L111.496 109.384C111.375 110.401 112.003 110.146 111.959 110.512C111.949 110.594 111.871 110.729 111.739 110.713C111.546 110.69 111.267 110.615 110.952 110.578C110.637 110.54 110.358 110.548 110.165 110.525C110.022 110.508 109.976 110.379 109.988 110.277C110.032 109.911 110.583 110.297 110.704 109.29L111.084 106.107C111.171 105.375 110.465 105.682 110.513 105.276C110.532 105.113 110.707 105.031 111.23 104.794C111.741 104.566 111.815 104.554 111.896 104.564C112.059 104.584 112.06 104.749 112.035 104.952L111.953 105.644C112.339 104.999 112.876 104.64 113.537 104.719C114.593 104.845 114.734 105.996 114.711 106.88L114.669 109.65C114.651 110.834 115.245 110.523 115.198 110.909L115.179 110.897Z" fill="#350E08"/>
</svg>
