<svg width="1439" height="75" viewBox="0 0 1439 75" fill="none" xmlns="http://www.w3.org/2000/svg">
<path d="M0.356007 6.47765L0.543104 54.1291C0.52196 48.7439 58.3398 50.4015 110.34 66.6228C159.727 82.0306 190.045 72.2919 219.13 62.9499C240.242 56.1689 260.706 49.5969 287.336 53.003C315.206 56.5675 332.033 60.8534 346.423 64.5184C364.727 69.1803 379.086 72.8374 407.203 72.7271C431.53 72.6315 452.416 66.1696 472.651 59.9082C494.195 53.2423 515.007 46.8037 538.452 48.5166C557.964 49.9419 573.553 54.9023 589.243 59.8936C610.121 66.535 631.175 73.2312 661.852 71.7272C686.24 70.5314 699.334 62.7936 710.77 56.0327C719.492 50.8783 727.615 48.1746 738.971 46.6408L751.52 45.6598C767.169 45.4414 775.462 47.6294 827.322 63.8075C876.709 79.2154 907.027 69.4766 936.112 60.1346C957.226 53.3536 977.687 46.7816 1004.32 50.1878C1032.19 53.7522 1049.01 58.0382 1063.4 61.7032C1081.71 66.365 1096.07 70.0222 1124.19 69.9118C1148.51 69.8163 1169.4 63.3543 1189.63 57.093C1211.18 50.427 1231.99 43.9884 1255.43 45.7013C1274.94 47.1267 1290.54 52.087 1306.23 57.0783C1327.1 63.7197 1348.16 70.416 1378.83 68.9119C1421.82 66.8045 1437.85 48.4553 1440.51 42.5211L1440.34 0.823749L0.356007 6.47765Z" fill="#B7E449"/>
</svg>
