<svg width="27" height="27" viewBox="0 0 27 27" fill="none" xmlns="http://www.w3.org/2000/svg">
<path d="M18.5032 21.1399C18.4568 20.1849 18.0963 19.3386 17.5775 18.5469C17.5269 18.4699 17.4754 18.3938 17.423 18.3181C16.6963 17.2767 15.777 16.3445 14.7339 15.6275C14.4146 15.4081 14.119 15.1579 13.9264 14.8134C13.8132 14.6113 13.7441 14.3873 13.7246 14.1557C13.6972 13.8257 13.7729 13.5335 13.9237 13.2431C14.0745 12.9523 14.2703 12.6526 14.2155 12.3086C14.1599 11.9571 13.8332 11.7527 13.5032 11.7578C13.5032 11.7578 13.5014 11.7578 13.5009 11.7578C13.5005 11.7578 13.4991 11.7578 13.4986 11.7578C13.1687 11.7527 12.8425 11.9571 12.7863 12.3086C12.7316 12.6531 12.9274 12.9523 13.0782 13.2431C13.229 13.5335 13.3046 13.8257 13.2773 14.1557C13.2578 14.3873 13.1886 14.6113 13.0754 14.8134C12.8824 15.1579 12.5872 15.4081 12.268 15.6275C11.2248 16.3445 10.3056 17.2763 9.5789 18.3181C9.52647 18.3938 9.47449 18.4699 9.42438 18.5469C8.90559 19.3386 8.54457 20.1849 8.49863 21.1399C8.45454 22.0479 8.66243 22.9684 9.10002 23.7643C9.12368 23.8077 9.14828 23.8506 9.17334 23.8931C10.0601 25.3925 11.7617 26.3611 13.5009 26.3148C15.2401 26.3615 16.9417 25.3925 17.8285 23.8931C17.8536 23.8506 17.8782 23.8077 17.9018 23.7643C18.3399 22.9684 18.5473 22.0479 18.5032 21.1399Z" fill="#22301B"/>
<path d="M6.7056 19.83C7.59423 19.4907 8.28286 18.8839 8.87079 18.143C8.92786 18.0712 8.98401 17.9979 9.03923 17.9241C9.79932 16.907 10.3965 15.7395 10.752 14.5202C10.8606 14.1468 11.0063 13.7869 11.2722 13.4961C11.4285 13.3252 11.6188 13.1899 11.8318 13.0998C12.1353 12.9714 12.4346 12.9537 12.7562 13.0083C13.0777 13.0629 13.4216 13.1577 13.7302 12.9985C14.0452 12.8365 14.1376 12.4607 14.0309 12.147C14.0309 12.147 14.0304 12.1456 14.0299 12.1447C14.0295 12.1438 14.0299 12.1433 14.029 12.1424C13.932 11.8254 13.6378 11.5761 13.2884 11.6312C12.9459 11.6854 12.7232 11.965 12.4949 12.1993C12.2671 12.4332 12.0142 12.5961 11.6935 12.6717C11.4689 12.7245 11.2355 12.7277 11.0091 12.682C10.6239 12.604 10.2958 12.3986 9.98958 12.161C8.98958 11.3848 7.82439 10.7933 6.61511 10.4199C6.52741 10.3928 6.43971 10.3671 6.35108 10.3424C5.44249 10.0908 4.53066 10.0072 3.61327 10.2579C2.74134 10.4964 1.93532 10.9796 1.31815 11.6443C1.28474 11.6802 1.25179 11.7171 1.21931 11.7545C0.0759262 13.0662 -0.314328 14.9936 0.267109 16.6432C0.760378 18.3214 2.20214 19.6499 3.89401 20.0354C3.9418 20.0462 3.99006 20.0564 4.03832 20.0658C4.92602 20.239 5.86059 20.1531 6.70513 19.8305L6.7056 19.83Z" fill="#22301B"/>
<path d="M4.2982 8.13876C4.89356 8.88377 5.6801 9.3557 6.56223 9.68899C6.64808 9.72167 6.73439 9.75247 6.82116 9.78235C8.01791 10.1955 9.30607 10.406 10.5687 10.3691C10.9553 10.3579 11.3404 10.3855 11.6977 10.5502C11.9075 10.6469 12.0945 10.7874 12.2453 10.9633C12.4601 11.214 12.5696 11.495 12.6174 11.8195C12.6652 12.1443 12.6819 12.5019 12.9274 12.7484C13.178 12.9995 13.5617 12.972 13.8253 12.7727C13.8253 12.7727 13.8267 12.7717 13.8272 12.7712C13.8276 12.7708 13.8286 12.7703 13.829 12.7698C14.0991 12.5794 14.2434 12.2204 14.0833 11.903C13.9265 11.5921 13.5933 11.4656 13.301 11.3195C13.0091 11.1739 12.7771 10.982 12.6068 10.6991C12.487 10.5003 12.4123 10.2781 12.3854 10.0475C12.3404 9.65491 12.4327 9.27774 12.5631 8.91131C12.9882 7.71444 13.1873 6.41721 13.1664 5.14472C13.165 5.05276 13.1622 4.96034 13.158 4.86838C13.1153 3.92125 12.9126 3.02313 12.3919 2.22304C11.8968 1.46263 11.191 0.840856 10.372 0.455748C10.3274 0.434742 10.2824 0.41467 10.2374 0.395065C8.64389 -0.293461 6.70098 -0.0712653 5.3214 0.994899C3.88707 1.98544 3.07686 3.77561 3.2351 5.51303C3.23974 5.56251 3.24484 5.61152 3.25088 5.66053C3.36178 6.56332 3.73162 7.43063 4.29727 8.13923L4.2982 8.13876Z" fill="#22301B"/>
<path d="M14.6081 2.22253C14.0875 3.02262 13.8847 3.92074 13.842 4.86787C13.8378 4.95983 13.835 5.05225 13.8336 5.14421C13.8132 6.4167 14.0118 7.71393 14.4369 8.9108C14.5668 9.27723 14.6596 9.6544 14.6146 10.047C14.5882 10.2776 14.513 10.4998 14.3933 10.6986C14.223 10.982 13.9909 11.1734 13.6991 11.319C13.4067 11.4651 13.0735 11.5916 12.9167 11.9025C12.7566 12.2199 12.9014 12.5784 13.171 12.7689C13.171 12.7689 13.1724 12.7698 13.1729 12.7703C13.1733 12.7707 13.1742 12.7712 13.1747 12.7717C13.4383 12.971 13.822 12.9985 14.0726 12.7474C14.3181 12.5014 14.3348 12.1434 14.3826 11.8185C14.4304 11.4945 14.5399 11.213 14.7547 10.9624C14.9056 10.7864 15.0926 10.6463 15.3023 10.5497C15.6596 10.3849 16.0448 10.3574 16.4313 10.3686C17.6939 10.4055 18.9821 10.195 20.1789 9.78184C20.2656 9.75197 20.3519 9.72069 20.4378 9.68848C21.3199 9.35472 22.1065 8.88326 22.7018 8.13825C23.2679 7.42965 23.6378 6.56234 23.7482 5.65956C23.7542 5.61054 23.7594 5.56106 23.764 5.51205C23.9222 3.77463 23.112 1.98493 21.6777 0.993922C20.2977 -0.0722418 18.3552 -0.294437 16.7617 0.394088C16.7167 0.413694 16.6717 0.433766 16.6271 0.454772C15.8081 0.839879 15.1018 1.46165 14.6072 2.22206L14.6081 2.22253Z" fill="#22301B"/>
<path d="M23.3872 10.2579C22.4703 10.0072 21.558 10.0908 20.6494 10.3424C20.5612 10.3667 20.4731 10.3928 20.3854 10.4199C19.1761 10.7933 18.0109 11.3848 17.0109 12.161C16.7046 12.3986 16.377 12.604 15.9914 12.682C15.765 12.7277 15.532 12.7249 15.307 12.6717C14.9868 12.5961 14.7339 12.4332 14.5056 12.1993C14.2773 11.965 14.0545 11.6854 13.7121 11.6312C13.3626 11.5761 13.068 11.8254 12.9715 12.1424C12.9715 12.1424 12.971 12.1438 12.9705 12.1447C12.9701 12.1456 12.9701 12.1461 12.9696 12.147C12.8624 12.4607 12.9552 12.8365 13.2703 12.9985C13.5789 13.1572 13.9223 13.0624 14.2443 13.0078C14.5654 12.9532 14.8652 12.9709 15.1687 13.0993C15.3817 13.1894 15.5719 13.3248 15.7283 13.4956C15.9942 13.7864 16.1394 14.1463 16.2485 14.5198C16.6039 15.739 17.2011 16.9065 17.9612 17.9237C18.0165 17.9974 18.0726 18.0702 18.1297 18.1421C18.7176 18.8829 19.4067 19.4898 20.2949 19.8291C21.1394 20.1517 22.074 20.2376 22.9617 20.0644C23.0099 20.055 23.0582 20.0448 23.106 20.034C24.7974 19.6489 26.2392 18.3204 26.7329 16.6418C27.3143 14.9922 26.9241 13.0652 25.7807 11.7531C25.7482 11.7157 25.7153 11.6793 25.6819 11.6429C25.0647 10.9782 24.2587 10.495 23.3867 10.2565L23.3872 10.2579Z" fill="#22301B"/>
</svg>
