<svg width="261" height="45" viewBox="0 0 261 45" fill="none" xmlns="http://www.w3.org/2000/svg">
<g clip-path="url(#clip0_263_1464)">
<path d="M188.759 36.0068C186.805 36.0068 184.852 36.0068 182.899 36.0068C181.923 36.0068 180.946 36.0068 179.97 36.0068C179.466 36.0068 178.963 36.0068 178.46 36.0068C178.1 36.0068 177.416 36.1419 177.091 35.9731C176.789 35.8163 177.12 34.9467 177.163 34.6938C177.264 34.0951 177.343 33.4933 177.413 32.8901C177.549 31.7196 177.647 30.5446 177.795 29.3749C177.662 27.5172 178.452 22.5277 175.391 23.2315C174.164 24.2699 174.088 26.2117 174.111 27.6943C174.15 30.3601 174.546 32.9591 174.916 35.5942C174.998 36.1719 174.411 35.9926 174.03 35.9926C173.502 35.9926 172.973 35.9926 172.445 35.9926C171.388 35.9926 170.331 35.9926 169.273 35.9926C167.181 35.9926 165.088 35.9813 162.996 35.9926C163.223 35.9911 163.46 32.9869 163.488 32.7438C163.653 31.2747 163.846 29.7973 163.878 28.3178C163.899 27.3356 163.853 26.3497 163.698 25.3796C163.603 24.7891 163.452 24.1859 163.086 23.7139C162.255 22.6417 160.731 23.3538 160.54 24.5783C160.051 26.2462 160.206 28.0109 160.288 29.7238C160.313 30.2498 160.817 35.9896 161.064 35.9686C159.24 36.1299 157.415 35.9828 155.59 35.9918C153.651 35.9918 151.712 36.0113 149.773 36.0203C149.65 36.0203 149.512 36.0151 149.427 35.9258C149.339 35.832 149.345 35.6865 149.356 35.5582C149.881 29.7553 150.145 23.9503 149.609 18.1384C149.571 17.7303 149.494 17.3251 149.446 16.9177C149.398 16.5103 149.217 15.8005 149.383 15.4148C149.591 14.9324 150.752 15.1455 151.138 15.1665C152.122 15.2205 153.119 15.1845 154.105 15.186C155.399 15.186 156.693 15.186 157.988 15.1875C159.261 15.189 160.654 15.0322 161.912 15.2078C161.946 15.8118 161.377 16.6108 161.111 17.1413C160.782 17.7978 160.463 18.4791 160.406 19.2226C160.391 19.4237 160.397 19.633 160.479 19.8176C161.207 21.4435 162.921 18.2285 163.289 17.6943C164.277 16.2627 165.73 15.0622 167.471 14.7478C168.888 14.492 170.588 14.7103 171.887 15.3361C173.312 16.0218 174.265 17.4249 174.346 19.0178C174.357 19.2406 174.352 19.4672 174.405 19.6841C174.459 19.9009 174.584 20.1132 174.784 20.2093C174.985 20.3053 175.229 20.267 175.423 20.1597C176.217 19.7208 176.612 18.5841 177.102 17.8601C177.716 16.953 178.437 15.9851 179.399 15.4306C180.343 14.8866 181.466 14.6871 182.544 14.7141C183.693 14.7433 184.857 15.0127 185.821 15.6422C187.709 16.8749 188.25 19.1506 188.361 21.2694C188.5 23.921 187.956 26.5455 187.991 29.1941C188.008 30.4141 188.136 31.6288 188.306 32.8361C188.343 33.0964 188.766 36.0091 188.758 36.0091L188.759 36.0068Z" fill="#22301B"/>
<path d="M73.6434 10.1238C73.6493 10.153 73.6501 10.1845 73.6501 10.2153C73.6463 12.5983 73.6493 14.9812 73.6493 17.3642C73.6493 17.9554 73.6903 18.5624 73.6493 19.1521C73.6165 19.6308 73.436 19.4725 73.037 19.375C72.497 19.2429 71.9585 19.1019 71.4192 18.9631C70.6017 18.7522 69.7664 18.6127 68.9258 18.5436C65.9356 18.2998 61.7968 18.741 61.0368 22.3139C60.7661 23.5849 60.9152 25.1965 61.4664 26.3768C61.855 27.2089 62.6359 28.3396 63.6958 28.158C64.3253 28.0499 64.7057 27.4302 64.7579 26.836C64.8444 25.8546 64.6535 24.8567 64.2604 23.9571C63.8636 23.0514 63.1521 22.4647 62.6583 21.6461C62.6128 21.5703 62.5733 21.4856 62.5763 21.3963C62.5815 21.241 62.721 21.1164 62.8709 21.0759C63.3624 20.9446 63.9934 21.0729 64.4984 21.0759C67.7153 21.0759 70.9314 21.1314 74.1483 21.1314C74.1796 21.1314 74.2139 21.1322 74.2386 21.1532C74.2662 21.1764 74.2706 21.2177 74.2729 21.2537C74.5675 26.1179 74.3243 30.9649 74.3982 35.8321C74.3997 35.9093 74.3997 35.9896 74.3661 36.0586C74.2177 36.3663 73.3562 36.2957 73.0676 36.3378C72.3284 36.4443 71.6527 36.4683 70.9426 36.1839C70.0319 35.8193 69.4911 35.1178 68.9519 34.3345C68.5924 33.8115 68.1777 33.0484 67.5019 32.9119C67.2386 32.8586 66.9634 32.9209 66.7143 33.0229C65.8961 33.3576 65.3024 34.0733 64.6416 34.6346C63.9852 35.1913 63.3094 35.7383 62.4942 36.0391C59.4437 37.1638 55.7255 36.1172 53.5141 33.7755C49.9093 29.9595 49.4782 23.6599 50.2435 18.7162C50.5962 16.436 51.2996 14.1641 52.8771 12.4279C54.3733 10.7848 56.3879 9.67359 58.5158 9.10261C58.6888 9.05609 58.8634 9.01333 59.0379 8.97356C61.7513 8.36282 64.5752 8.35531 67.3244 8.7042C68.5476 8.85952 69.7522 9.11087 70.9605 9.34721C71.8346 9.51828 72.6931 9.59481 73.5098 9.98647C73.5524 10.0067 73.5971 10.03 73.6225 10.0697C73.6329 10.0863 73.6389 10.1035 73.6434 10.1223V10.1238Z" fill="#22301B"/>
<path d="M115.105 35.9694C115.099 35.9694 115.093 35.9694 115.087 35.9694C115.199 35.9724 115.68 34.7846 115.747 34.6421C115.969 34.1716 116.177 33.6937 116.351 33.203C116.532 32.6928 117.187 31.1284 116.26 30.9439C116.052 30.9018 115.837 30.9799 115.652 31.0872C115.174 31.3678 114.842 31.8442 114.562 32.3252C113.035 34.9452 110.509 36.944 107.326 36.4541C105.51 36.1749 103.996 34.6256 103.338 32.9547C102.795 31.5771 102.675 30.0668 102.698 28.5849C102.723 26.962 102.903 25.3376 102.907 23.7177C102.911 22.2951 102.839 20.8726 102.713 19.4553C102.649 18.7357 102.571 18.0177 102.482 17.3011C102.44 16.956 102.394 16.6109 102.347 16.2657C102.311 16.0061 102.19 15.7428 102.194 15.4787C102.201 15.0472 102.507 15.0788 102.878 15.0713C104.989 15.0277 107.1 15.0255 109.21 15.0292C109.953 15.0292 110.696 15.0022 111.438 14.9857C112.099 14.9715 112.89 14.8619 113.539 15.0105C113.71 15.0495 113.877 15.1433 113.967 15.2956C114.025 15.3954 114.047 15.5124 114.052 15.628C114.07 16.0474 113.903 16.4683 113.829 16.8772C113.747 17.3312 113.679 17.7873 113.611 18.2435C113.448 19.3472 113.331 20.4584 113.283 21.5734C113.217 23.1047 113.143 24.6736 113.473 26.1809C113.567 26.6101 113.696 27.04 113.946 27.4009C114.487 28.1805 115.461 28.3201 116.075 27.5495C116.656 26.8187 116.732 25.76 116.847 24.8649C117.047 23.3005 116.907 21.8022 116.754 20.2461C116.673 19.417 116.565 18.5917 116.443 17.7678C116.365 17.2374 116.223 16.7197 116.137 16.1907C116.11 16.0196 115.972 15.5327 116.063 15.3781C116.153 15.2236 116.612 15.2678 116.794 15.2536C117.983 15.1583 119.166 15.0848 120.358 15.0578C122.588 15.0067 124.81 15.1155 127.038 15.1155C127.225 15.1178 127.424 15.123 127.581 15.2266C127.911 15.4442 127.674 15.9941 127.645 16.3025C127.598 16.8014 127.554 17.3004 127.514 17.8001C127.381 19.432 127.224 21.0902 127.224 22.7288C127.07 27.1473 127.358 31.5756 127.723 35.9776C127.682 35.5147 121.623 35.8756 120.935 35.8861C118.994 35.9161 117.044 36.0099 115.103 35.9694H115.105Z" fill="#22301B"/>
<path d="M88.6896 36.4121C86.8443 36.4061 84.9991 36.199 83.1963 35.7968C81.7814 35.4817 80.3747 34.8447 79.2112 33.9758C75.3141 31.0669 74.924 25.2408 76.4843 20.9536C76.6775 20.4224 76.9057 19.904 77.175 19.4065C77.4547 18.8896 77.7635 18.4304 78.1715 18.0079C79.3872 16.7512 81.0378 15.9409 82.6929 15.4547C86.2909 14.3975 90.285 14.4185 93.9323 15.1973C95.7992 15.5957 97.6705 16.4038 99.0645 17.7408C100.794 19.3983 101.44 21.7685 101.646 24.0899C101.828 26.1405 101.705 28.2435 100.978 30.1861C100.243 32.1534 98.8743 33.7988 97.0142 34.7772C96.9291 34.8214 96.8441 34.8649 96.7583 34.907C95.3061 35.6167 93.6914 35.9806 92.0982 36.1922C90.9682 36.3423 89.8285 36.4151 88.6896 36.4106V36.4121ZM85.425 23.8273C85.3108 24.1739 85.2855 24.5506 85.3646 24.9047C85.6793 26.3145 87.3567 27.0303 88.6807 26.9478C89.6368 26.8885 90.6512 26.7752 91.4105 26.1269C91.9393 25.6753 92.2832 24.976 92.2093 24.282C92.1153 23.3996 91.3755 22.6943 90.5475 22.389C89.1826 21.8855 87.0435 21.9335 85.9351 23.0019C85.7009 23.2278 85.5271 23.5152 85.425 23.8265V23.8273Z" fill="#22301B"/>
<path d="M235.409 25.6258C234.076 25.9544 232.52 25.7166 231.163 25.7166C230.332 25.7166 229.502 25.7136 228.671 25.7121C227.999 25.7106 227.329 25.7075 226.658 25.6978C225.929 25.6865 225.786 26.4781 226.176 27.0078C226.825 27.8909 228.381 27.9127 229.355 27.9795C233.133 28.2368 237.042 27.0678 240.377 25.3489C240.306 25.6573 240.321 25.9784 240.337 26.295C240.44 28.4026 240.514 30.5042 240.522 32.6156C240.525 33.642 240.753 34.8117 239.504 35.1043C238.38 35.3662 237.227 35.499 236.094 35.7241C234.843 35.9724 233.583 36.1735 232.316 36.3085C229.808 36.5764 227.277 36.5756 224.781 36.196C222.203 35.8036 219.622 34.88 217.859 32.8722C215.371 30.0383 214.931 25.5815 215.992 22.0551C216.767 19.4808 218.551 17.3259 220.951 16.1382C224.148 14.5558 227.978 14.351 231.455 14.847C234.03 15.2146 237.007 15.8839 238.509 18.2368C240.132 20.7796 238.365 24.8229 235.516 25.5995C235.48 25.6093 235.445 25.6183 235.409 25.6273V25.6258ZM226.208 23.3449C227.3 24.288 229.285 23.7523 230.627 23.705C231.864 23.7853 232.733 22.3612 231.461 21.6529C230.032 20.8494 225.877 20.9784 226.208 23.3449Z" fill="#22301B"/>
<path d="M212.809 20.58C212.845 21.9163 212.343 23.212 211.399 24.1559C210.344 25.2116 208.825 25.649 207.373 25.7841C205.559 25.9529 203.733 25.6753 201.922 25.613C201.207 25.5882 199.764 25.4329 199.836 26.5464C199.851 26.7902 199.951 27.0281 200.113 27.2096C200.338 27.4617 200.666 27.5953 200.99 27.6861C202.386 28.0762 204.047 28.008 205.484 27.9082C207.067 27.7986 208.634 27.4843 210.151 27.0176C210.911 26.7835 211.659 26.5111 212.393 26.205C212.626 26.1075 214.228 25.5762 214.228 25.3009C214.228 28.4281 214.228 31.5014 214.228 34.6151C214.227 34.8364 212.576 35.1216 212.356 35.1763C209.486 35.8839 206.573 36.3896 203.614 36.4849C200.047 36.5996 196.079 36.217 193.074 34.0951C190.22 32.0791 189.03 28.3328 189.259 24.928C189.411 22.6643 190.159 20.1441 191.697 18.4341C195.08 14.6751 200.792 14.0846 205.499 14.8522C207.311 15.1478 209.207 15.5672 210.733 16.6484C212.083 17.6051 212.769 19.0869 212.808 20.58H212.809ZM205.854 22.3357C205.747 22.0131 205.484 21.7407 205.192 21.5546C204.195 20.9191 202.833 20.9904 201.754 21.3551C201.242 21.5284 200.638 21.746 200.261 22.1511C199.343 23.137 200.599 23.8265 201.475 23.9196C202.483 24.0269 205.95 24.315 205.904 22.6163C205.901 22.5195 205.884 22.4257 205.854 22.3357Z" fill="#22301B"/>
<path d="M259.983 23.1354C259.819 23.2465 259.61 23.2975 259.409 23.3073C257.772 23.3853 256.1 23.1625 254.456 23.1962C253.626 23.2135 251.801 22.9801 251.594 24.1709C251.463 24.8814 251.93 25.5011 252.539 25.7938C252.726 25.8838 252.923 25.9528 253.124 26.0091C254.266 26.3295 255.498 26.2154 256.641 25.9566C257.53 25.7555 258.946 25.5289 259.637 24.9084C259.698 24.9219 259.752 24.9699 259.76 25.036C259.97 26.6896 260.188 28.3425 260.408 29.9947C260.458 30.3803 261.163 34.6863 260.967 34.7448C255.857 36.2642 250.342 37.599 245.288 35.1733C244.857 34.9662 244.469 34.6721 244.105 34.3614C240.939 31.6641 240.867 26.7496 242.557 23.215C242.748 22.8158 242.952 22.4234 243.162 22.0393C242.788 21.9215 242.291 21.9762 241.897 21.995C241.747 22.0017 241.591 22.0122 241.451 21.9582C241.034 21.7999 241.128 21.292 241.124 20.9423C241.118 20.3451 241.111 19.7478 241.104 19.1506C241.096 18.4408 241.088 17.7303 241.08 17.0205C241.075 16.5223 240.862 15.5882 241.282 15.2168C241.462 15.0577 241.696 14.9767 241.918 14.8866C243.267 14.3434 244.525 13.359 245.142 12.0107C245.274 11.7226 245.381 11.4165 245.579 11.1704C246.014 10.6317 246.904 10.8343 247.504 10.82C248.417 10.799 249.329 10.7908 250.242 10.7953C251.155 10.7998 252.068 10.817 252.98 10.8463C253.772 10.8718 254.921 10.724 255.657 11.0001C255.566 10.9791 254.868 12.2703 254.798 12.3844C254.328 13.1482 253.82 13.915 253.421 14.7178C253.105 15.3511 252.903 16.0811 253.07 16.7691C253.476 18.4453 256 16.0571 256.715 15.6129C257.467 15.1462 258.3 14.7501 259.188 14.6556C259.768 14.594 260.108 14.6788 260.152 15.3286C260.24 16.6333 260.308 17.9974 260.321 19.3277C260.331 20.2948 260.318 21.2627 260.313 22.2298C260.312 22.4819 260.306 22.7513 260.163 22.9584C260.115 23.0289 260.054 23.0867 259.985 23.1339L259.983 23.1354Z" fill="#22301B"/>
<path d="M128.991 35.8141C129.247 34.4966 129.307 33.1318 129.415 31.7955C129.534 30.3361 129.606 28.8731 129.636 27.4092C129.713 23.705 129.647 19.9497 129.075 16.283C129.008 15.8546 128.812 15.2439 129.314 15.0435C129.798 14.8514 130.503 15.0323 131.015 15.0383C131.756 15.0473 132.496 15.0563 133.238 15.0645C135.236 15.0885 137.235 15.0675 139.233 15.06C139.335 15.06 139.451 15.0653 139.519 15.1426C139.609 15.2454 139.56 15.4044 139.501 15.5275C139.012 16.5606 137.904 17.6898 138.063 18.9241C138.111 19.3022 138.353 19.6864 138.723 19.7659C139.191 19.8657 139.605 19.4673 139.918 19.1041C142.001 16.6889 144.65 14.928 147.879 14.6601C148.021 14.6481 148.173 14.6414 148.298 14.7104C148.674 14.9182 148.562 15.676 148.573 16.0257C148.593 16.7084 148.621 17.3905 148.645 18.0732C148.645 18.8108 149.226 26.7212 148.393 26.7212C145.875 26.2995 143.391 24.6699 140.763 25.1141C140.278 25.1958 139.751 25.4719 139.522 25.9304C139.25 26.4713 139.452 27.1219 139.629 27.6583C139.859 28.3546 140.067 29.0584 140.245 29.7704C140.484 30.7248 140.697 31.6874 140.834 32.6628C140.955 33.5287 141.148 34.6249 140.983 35.4907C140.89 35.9821 140.566 36.181 140.094 36.1742C138.159 36.145 136.222 36.0414 134.28 36.0384C133.836 36.0384 128.985 35.8501 128.987 35.8396C128.988 35.8313 128.99 35.8231 128.991 35.8148L128.991 35.8141Z" fill="#22301B"/>
<path d="M30.408 36.6799C30.3334 35.1448 29.7539 33.7845 28.92 32.512C28.8387 32.3882 28.7559 32.2659 28.6717 32.1444C27.5036 30.4704 26.0261 28.9721 24.3494 27.8196C23.8362 27.467 23.3611 27.0648 23.0516 26.5111C22.8696 26.1862 22.7585 25.8261 22.7271 25.4539C22.6831 24.9235 22.8047 24.4538 23.0471 23.9871C23.2895 23.5197 23.6043 23.038 23.5163 22.485C23.4268 21.92 22.9017 21.5914 22.3714 21.5996C22.3714 21.5996 22.3684 21.5996 22.3676 21.5996C22.3669 21.5996 22.3647 21.5996 22.3639 21.5996C21.8336 21.5914 21.3093 21.92 21.219 22.485C21.131 23.0387 21.4458 23.5197 21.6882 23.9871C21.9306 24.4538 22.0521 24.9235 22.0081 25.4539C21.9768 25.8261 21.8657 26.1862 21.6837 26.5111C21.3734 27.0648 20.899 27.467 20.3859 27.8196C18.7092 28.9721 17.2316 30.4697 16.0636 32.1444C15.9793 32.2659 15.8958 32.3882 15.8152 32.512C14.9814 33.7845 14.4011 35.1448 14.3273 36.6799C14.2564 38.1393 14.5905 39.6189 15.2939 40.8981C15.3319 40.9679 15.3715 41.0369 15.4117 41.1052C16.8371 43.5152 19.5722 45.072 22.3676 44.9977C25.1631 45.0728 27.8982 43.5152 29.3235 41.1052C29.3638 41.0369 29.4033 40.9679 29.4414 40.8981C30.1455 39.6189 30.4789 38.1393 30.408 36.6799Z" fill="#22301B"/>
<path d="M11.4452 34.5746C12.8736 34.0292 13.9804 33.0538 14.9254 31.863C15.0172 31.7475 15.1074 31.6297 15.1962 31.5111C16.4179 29.8762 17.3778 27.9997 17.9492 26.04C18.1237 25.4397 18.3579 24.8612 18.7853 24.3938C19.0366 24.1192 19.3424 23.9016 19.6848 23.7568C20.1726 23.5505 20.6536 23.522 21.1705 23.6097C21.6874 23.6975 22.2401 23.8498 22.7361 23.594C23.2425 23.3336 23.391 22.7296 23.2194 22.2254C23.2194 22.2254 23.2187 22.2232 23.2179 22.2217C23.2172 22.2202 23.2179 22.2194 23.2164 22.2179C23.0605 21.7085 22.5877 21.3078 22.026 21.3964C21.4756 21.4834 21.1176 21.9328 20.7506 22.3095C20.3844 22.6854 19.9779 22.9472 19.4625 23.0688C19.1015 23.1536 18.7263 23.1588 18.3624 23.0853C17.7433 22.96 17.216 22.6298 16.7237 22.2479C15.1164 21.0002 13.2435 20.0496 11.2998 19.4493C11.1588 19.4058 11.0179 19.3645 10.8754 19.3248C9.41501 18.9204 7.94939 18.7861 6.47482 19.189C5.07335 19.5724 3.77779 20.3489 2.78579 21.4174C2.73209 21.4751 2.67914 21.5344 2.62693 21.5944C0.789123 23.7028 0.161853 26.8008 1.09642 29.4523C1.88927 32.1497 4.20666 34.285 6.92607 34.9048C7.00289 34.922 7.08046 34.9385 7.15803 34.9535C8.58487 35.2319 10.087 35.0938 11.4445 34.5754L11.4452 34.5746Z" fill="#22301B"/>
<path d="M7.57572 15.7826C8.53266 16.98 9.7969 17.7386 11.2148 18.2743C11.3528 18.3268 11.4915 18.3763 11.631 18.4244C13.5545 19.0884 15.6251 19.4268 17.6545 19.3675C18.2759 19.3495 18.8949 19.3937 19.4692 19.6586C19.8064 19.8139 20.1069 20.0398 20.3493 20.3226C20.6947 20.7255 20.8707 21.1772 20.9475 21.6987C21.0243 22.2209 21.0512 22.7956 21.4458 23.1918C21.8485 23.5954 22.4654 23.5512 22.889 23.2308C22.889 23.2308 22.8912 23.2293 22.892 23.2285C22.8927 23.2278 22.8942 23.227 22.895 23.2263C23.3291 22.9202 23.561 22.3432 23.3037 21.833C23.0516 21.3333 22.5161 21.1299 22.0462 20.8951C21.577 20.661 21.2041 20.3526 20.9304 19.898C20.7379 19.5783 20.6179 19.2212 20.5746 18.8505C20.5022 18.2195 20.6507 17.6133 20.8603 17.0243C21.5435 15.1005 21.8634 13.0154 21.8299 10.9701C21.8276 10.8223 21.8232 10.6738 21.8165 10.526C21.7478 9.00359 21.4219 7.56002 20.585 6.274C19.7892 5.05176 18.6547 4.05236 17.3383 3.43336C17.2667 3.3996 17.1944 3.36734 17.122 3.33583C14.5607 2.22913 11.4378 2.58628 9.22035 4.29996C6.91489 5.8921 5.61262 8.7695 5.86696 11.5621C5.87441 11.6416 5.88262 11.7204 5.89232 11.7992C6.07058 13.2503 6.66503 14.6443 7.57423 15.7833L7.57572 15.7826Z" fill="#22301B"/>
<path d="M24.1473 6.27329C23.3104 7.5593 22.9845 9.00288 22.9158 10.5252C22.9091 10.673 22.9047 10.8216 22.9024 10.9694C22.8696 13.0147 23.1888 15.0998 23.872 17.0236C24.0809 17.6126 24.2301 18.2188 24.1577 18.8498C24.1152 19.2205 23.9944 19.5776 23.8019 19.8972C23.5282 20.3527 23.1553 20.6603 22.6861 20.8944C22.2162 21.1292 21.6807 21.3326 21.4286 21.8323C21.1713 22.3425 21.404 22.9187 21.8373 23.2248C21.8373 23.2248 21.8396 23.2263 21.8403 23.2271C21.8411 23.2278 21.8425 23.2286 21.8433 23.2293C22.2669 23.5497 22.8838 23.594 23.2865 23.1903C23.6811 22.7949 23.7079 22.2194 23.7848 21.6972C23.8616 21.1765 24.0376 20.7241 24.383 20.3212C24.6254 20.0383 24.9259 19.8132 25.2631 19.6579C25.8374 19.393 26.4564 19.3488 27.0777 19.3668C29.1072 19.426 31.1777 19.0877 33.1013 18.4236C33.2408 18.3756 33.3795 18.3254 33.5175 18.2736C34.9354 17.7371 36.1996 16.9793 37.1566 15.7818C38.0665 14.6429 38.661 13.2488 38.8385 11.7977C38.8482 11.719 38.8564 11.6394 38.8639 11.5607C39.1182 8.76803 37.8159 5.89138 35.5105 4.2985C33.2923 2.58481 30.1701 2.22767 27.6088 3.33436C27.5365 3.36587 27.4641 3.39814 27.3925 3.4319C26.0761 4.0509 24.9409 5.0503 24.1458 6.27254L24.1473 6.27329Z" fill="#22301B"/>
<path d="M38.2582 19.189C36.7844 18.7861 35.318 18.9204 33.8576 19.3248C33.7159 19.3638 33.5742 19.4058 33.4332 19.4493C31.4895 20.0496 29.6167 21.0002 28.0093 22.2479C27.5171 22.6298 26.9905 22.96 26.3707 23.0853C26.0067 23.1588 25.6323 23.1543 25.2705 23.0688C24.7559 22.9472 24.3494 22.6854 23.9824 22.3095C23.6155 21.9328 23.2574 21.4834 22.707 21.3964C22.1454 21.3078 21.6717 21.7085 21.5166 22.2179C21.5166 22.2179 21.5159 22.2202 21.5151 22.2217C21.5144 22.2232 21.5144 22.2239 21.5136 22.2254C21.3413 22.7296 21.4905 23.3336 21.9969 23.594C22.4929 23.8491 23.0449 23.6968 23.5625 23.609C24.0786 23.5212 24.5605 23.5497 25.0483 23.756C25.3906 23.9009 25.6964 24.1184 25.9478 24.393C26.3751 24.8605 26.6086 25.439 26.7839 26.0392C27.3552 27.999 28.3151 29.8755 29.5369 31.5104C29.6256 31.6289 29.7159 31.746 29.8076 31.8615C30.7526 33.0523 31.8602 34.0277 33.2878 34.5731C34.6453 35.0916 36.1474 35.2296 37.5743 34.9513C37.6518 34.9363 37.7294 34.9198 37.8062 34.9025C40.5249 34.2835 42.8423 32.1482 43.6359 29.4501C44.5704 26.7985 43.9432 23.7013 42.1054 21.5922C42.0532 21.5322 42.0002 21.4736 41.9465 21.4151C40.9545 20.3467 39.6589 19.5701 38.2575 19.1867L38.2582 19.189Z" fill="#22301B"/>
</g>
<defs>
<clipPath id="clip0_263_1464">
<rect width="261" height="45" fill="white"/>
</clipPath>
</defs>
</svg>
