<svg width="54" height="54" viewBox="0 0 54 54" fill="none" xmlns="http://www.w3.org/2000/svg">
<path fill-rule="evenodd" clip-rule="evenodd" d="M8.25 0.75C6.26088 0.75 4.35322 1.54018 2.9467 2.9467C1.54018 4.35322 0.75 6.26088 0.75 8.25V45.75C0.75 47.7391 1.54018 49.6468 2.9467 51.0533C4.35322 52.4598 6.26088 53.25 8.25 53.25H45.75C47.7391 53.25 49.6468 52.4598 51.0533 51.0533C52.4598 49.6468 53.25 47.7391 53.25 45.75V8.25C53.25 6.26088 52.4598 4.35322 51.0533 2.9467C49.6468 1.54018 47.7391 0.75 45.75 0.75H8.25ZM12.3825 16.8637C13.571 16.8637 14.7108 16.3916 15.5512 15.5512C16.3916 14.7108 16.8637 13.571 16.8637 12.3825C16.8637 11.194 16.3916 10.0542 15.5512 9.21378C14.7108 8.37338 13.571 7.90125 12.3825 7.90125C11.194 7.90125 10.0542 8.37338 9.21378 9.21378C8.37338 10.0542 7.90125 11.194 7.90125 12.3825C7.90125 13.571 8.37338 14.7108 9.21378 15.5512C10.0542 16.3916 11.194 16.8637 12.3825 16.8637ZM16.1325 45.0487V20.3775H8.6325V45.0487H16.1325ZM21.1125 20.3775H28.6125V23.6812C29.7188 21.9487 32.1488 19.6163 36.6675 19.6163C42.06 19.6163 44.9887 23.19 44.9887 29.9887C44.9887 30.315 45.0188 31.8038 45.0188 31.8038V45.045H37.5188V31.8075C37.5188 29.9887 37.1362 26.415 33.0938 26.415C29.0475 26.415 28.7063 30.9075 28.6125 33.8475V45.045H21.1125V20.3775Z" fill="#282314"/>
</svg>
