<?xml version="1.0" encoding="UTF-8"?><svg id="Calque_2" xmlns="http://www.w3.org/2000/svg" viewBox="0 0 1344.05 649.38"><defs><style>.cls-1{fill:#111110;stroke-width:0px;}</style></defs><g id="Calque_1-2"><path class="cls-1" d="M690.08,221.36c-17.48.17-22.98,23.07-19.4,36.25,11.33-5.57,26.38-14.7,25.85-28.73-.1-4.08-2.33-6.65-6.45-7.52Z"/><path class="cls-1" d="M856.27,268.38l-.08-.07-.59.57c.08.07.15.13.23.2.17-.22.33-.43.45-.7Z"/><path class="cls-1" d="M305.02,473.04c-1.29-.26-2.98,1.05-4.08-.09-6.74,1.52-11.18,4.51-14.1,11.11-2.41,6.82-3.9,14.38-2.51,21.21.66,12.47,4.47,25.12,19.78,21.55,9.88-4.65,11.94-15.39,12.95-24.73.27-3.63.36-7.41-.55-10.9-.69-7.75-3.62-15.72-11.48-18.14Z"/><path class="cls-1" d="M1316.23,87.75l-.56-.58-.59-.56c-16.91-15.99-41.62-23.45-67.8-20.45-11.13,1.27-22.36,4.42-32.83,9.18l-83.92,9.61c1.27-10.87-.51-19.81-1.67-25.64-.22-1.12-.43-2.17-.55-2.89l-.17-1.02-.22-1c-7.74-35.62-41.36-58.27-79.94-53.85-.87.1-1.74.21-2.61.34-.75.07-1.51.14-2.26.23-32.43,3.71-61.74,25-74.76,54.26-6.29,13.92-9.34,29.24-8.87,43.98-10.09-2.67-21-3.4-32.37-2.1-11.42,1.31-22.93,4.66-33.87,9.71l-151.42,17.33c-9.28-1.68-19.22-2.25-29.66-1.64-4.75.12-9.59.45-14.41,1-29.53,3.38-59.38,14.96-84.06,32.6-3.9,2.79-7.65,5.71-11.24,8.74-3.89-3.68-8.21-6.88-12.94-9.52-18.3-10.93-38.56-11.84-52.04-12.45l-1.57-.07-1.59.05c-5.18.17-10.43.56-15.6,1.15-29.78,3.41-58.19,13.6-82.15,29.48-2.57,1.7-5.09,3.47-7.54,5.29-1.47-1.32-2.86-2.49-4.08-3.5l-2.27-1.91-1.54-1.04c-12.28-8.28-27.46-12.53-45.13-12.61h-.26c-2.96,0-6,.19-9.06.54-13.55,1.55-26.11,6.25-36.2,11.26v-74.31l-161.15,18.45v234.39l-84.11,9.63-11.39,23.98c-3.94,8.3-9.92,19.8-16.27,23.8l-.66.42-.65.44c-.92.62-1.88,1.22-2.86,1.8l-1.8-.32-11.01,5.55c-.11.03-.22.06-.33.08-2.04.52-4.82,1.23-8.06,2.34l-30.66,10.55-1.24,31.58c-.32,8.05-.37,24.64-.31,37.48.13,29.53.61,31.9,1.32,35.5l6.47,32.56,22.05-2.52c2.29,13.54,5.9,25.55,10.81,35.93,14.79,31.28,41.85,48.9,76.45,49.9,3.52.54,7.18.62,10.9.24,3.28.07,6.64-.09,10.06-.48,3.52-.4,7.07-1.03,11.01-1.95,26.75-4.15,49.9-14.47,67.52-30.04,7.97,4.44,16.74,7.89,26.25,10.28,11.25,3.01,22.08,3.54,30.8,3.97,1.68.08,3.37.16,5.04.27l2.87.18,2.92-.24c1.72-.14,3.29-.32,4.55-.46.57-.06,1.29-.14,1.81-.19,3.02.22,6.11.15,9.23-.21,3.54-.41,6.59-1.12,8.82-1.73.99-.06,2.13-.14,3.37-.29h0c3.57-.41,7.05-1.17,10.42-2.27,2.24-.4,5.17-1.06,8.52-2.24,9.29-2.45,17.47-5.92,25.11-9.3l.47-.21.46-.22c17.26-8.1,32.01-18.97,44.04-32.4,8.46,7.74,18.2,13.88,28.96,18.06,16.34,6.86,32.9,7.74,46.24,8.45.98.05,4.77.26,4.77.26l1.85-.07c6.99-.25,13.84-.75,20.37-1.5h0c40.94-4.69,73.6-19.33,97.34-43.59,14.46,11.78,33.06,19.51,54.25,22.15,1.21.16,2.37.26,3.46.32l2.55,2,15.21-1.37c2.11-.19,4.53-.32,7.1-.46,4.07-.22,8.68-.46,13.66-1.03,4.96-.57,9.57-1.38,13.99-2.47.11-.01.22-.02.33-.04,3.17-.36,6.27-1.02,9.29-1.98,3.02-.59,5.82-1.43,8.39-2.42,4.81-1.24,9.63-2.73,14.47-4.45l152.62-17.47v-.06s84.8-9.71,84.8-9.71l11.63-23.06c15.87-31.47,23.34-64.37,27.57-86.38l.54-2.82.16-2.82c.14-2.5.51-5.57.89-8.83,1.15-9.73,2.56-21.66.52-34.8-.01-.28-.02-.57-.03-.86-.15-3.7-.35-8.8-1.47-14.52-.31-3.92-1.11-7.4-2.2-10.46-1.01-4.52-2.32-8.88-3.92-13.05l109.5-12.54v-.03s.73-.08.73-.08l-.05.1,177.72-20.34,11.5-23.59c14.25-29.23,24.93-65.7,28.57-97.55,5.32-46.47-3.79-83.41-26.33-106.83ZM531.01,184.41c12.15.55,24.82,1.25,35.1,7.59,19.52,10.49,22.73,39.35,8.19,58.75-18.47,24.11-52.16,32.77-79.09,39.48,5.13,6.09,13.86,8.19,22.05,8.17,6.24-.36,12.57-1.25,18.64-3.47,1.18-.49,2.62.06,3.68-1.2,12.35-3.37,24.21-9.06,35.67-15.2,2.21-1.12,4-2.85,6.54-2.7v67.18c-14.4,6.34-29.64,12.36-44.53,16.32-1.4,1.87-3.51.7-5.3,1.87-1.55,1.01-3.86,1.04-5.79,1.41-8.46,2.08-16.97,3.86-25.51,4.48-6.43.72-12.96,2.06-19.29,1.51-1.47-.07-3.13,1-4.42-.22-25.34.14-51.04-11.07-62.64-33.21-10.9-22.41-10.55-50.54-1.06-75.67,19.97-49.08,69.73-73.51,117.75-75.12ZM194.34,584.26c-13.11,13.24-31.47,19.36-48.58,21.77-4.93,1.24-9.84,2.09-14.66,1.54-1.47-.09-3.09,1-4.47-.12-.26-.22-.92.02-1.4.07-48.77.21-57.57-49.34-57.19-89.97-8.91,1.02-17.62,2.02-26.32,3.01-.6-3.02-.81-50.25-.29-63.59,4-1.37,8.18-1.86,12.05-3.81,1.71.3,3.38-.61,4.71-1.4,6.32-2.55,12.53-5.86,18.25-9.74,16.26-10.25,26.22-27.2,34.17-43.95,17.68-2.02,35.42-4.06,53.08-6.08.34.3.6.53.7.62-1.11,7.25-1.27,14.11-2.6,21.31-.24,1.38.56,2.82-.71,4.15-.42,4.17-.13,8.48-1.29,12.65,11.42-1.31,22.87-2.62,34.49-3.95v76.22c-16.53,1.89-33.07,3.79-49.66,5.68,5.14,28.73,26.62,25.72,49.7,13.3v62.26ZM394.78,504.62c-4.94,31.85-20.16,57.56-51.3,72.18-6.89,3.05-13.56,5.91-20.73,7.5-2.58,1.41-5.25.79-7.85,2.08-2,1-4.54.75-6.83.92-3.32.23-6.55,2.18-9.85,1.83-4.12-.43-8.26.36-12.41.7-9.58-.59-19.38-.58-28.56-3.09-29.39-7.25-46.62-29.11-50.55-59.16-.97-9.87-2.33-19.87-.61-29.89-.05-1.56-.57-3.41.12-4.65,1.09-1.98.15-3.86,1.19-5.85.88-1.7.4-3.94.9-5.89,7.66-32.75,31.98-57.29,64.14-66.42,3.73-.97,7.5-1.98,11.1-3.3,11.63-1.66,23.73-4.81,35.04-3.32,10.55-.64,21.18,1.1,30.8,4.44,32.11,8.74,47.56,42.59,46.12,75.44.18,5.46-.32,10.97-.73,16.47ZM317.97,382.89c-3.6-15.4-8.59-31.86-20.19-42.34,6.3-7.03,15.03-11.51,21.15-18.85,19.88-25.59-12.59-25.03-26.78-1.21-.97,1.61-1.68,3.37-2.72,5.49v59.42c-26.34,3.01-52.55,6.02-78.93,9.04v-242.18c26.19-3,52.4-6,78.86-9.03v146.35c1.29-1.69.16-3.24,1.53-4.03,6.18-27.84,21.93-56.38,46.77-72.96,9.85-6.02,22.27-11.27,33.5-11.29,8.85.04,17.44,1.65,24.5,6.41,4.46,3.76,9.37,7.53,11.28,13.57.48,1.56,1.97,2.7,1.52,4.65,1.55,1.11-.06,3.5,1.41,4.73.57,8.65-.42,17.78-4.3,26.22-7.04,17.35-22.93,29.79-40.23,35.3,26.65,8.32,37.77,54.73,43.86,80.25-30.52,3.49-60.84,6.96-91.23,10.44ZM486.33,566.91c-12.51-.7-25.71-1.02-37.14-5.95-22.42-8.5-36.55-30.44-40.63-54.13-1.02-1.1-.34-2.77-.82-3.92-.55-1.32-.34-2.73-.7-3.99-1.13-5.02-1.16-10.42-1.46-15.56-1.28-9.86-.96-20.16.05-30.27-.39-4.46.87-8.81.78-13.21.12-1.38.52-2.76.69-4.14.17-1.39-.33-2.8.73-4.15.2-1.95-.21-3.89.64-5.97.66-1.58-.38-3.48.83-5.19-.09-6.12,1.89-12.2,2.83-18.44,27.38-3.13,54.22-6.21,81.07-9.28.52.6-.47.78-.41,1.11.48,2.82-.71,5.67-.78,8.5-.04,1.6-.47,3.24-.68,4.86-.2,1.5.51,3.05-.72,4.51-.5,7.87-1.34,16.04-1.56,23.85-1.35,15.04-1.7,31.09,4.45,44.29,1.17,2.91,3.89,3.93,6.22,5.72,1.2.03,2.58-.74,3.63.26,1.01-1.41,2.49-.61,3.62-1.22,12.03-8.34,11.01-28.94,11.21-41.2.18-12.82-.76-25.52-2.78-37.75-.65-.98.34-3.09-.22-4.2-1.22-2.4.07-5.35-1.28-7.68-.45-.78-.07-2.1-.07-3.31,27.04-3.1,53.98-6.18,81.15-9.29,15.87,92.51,12.03,181.47-108.62,185.76ZM763.39,520.47c-13.85,8.29-28.93,14.94-44.16,18.33-1.74,1.57-3.96.6-5.74,1.68-1.86,1.13-3.79.48-5.62,1.09-10.18,2.98-20.44,2.57-30.6,3.49-1.84-1.44-4.25.3-6.37-.56-1.73-.7-4.13.05-6.13-.23-20.59-2.53-40.07-12.42-49.36-30.92-12.05-24.91-10.28-57.29,3.63-84.09,17.01-32.06,51.14-52.35,83.96-62.04,1.73-1.71,3.98-.92,5.99-1.99,3.72-1.54,8.14-1.63,12.04-2.96,14.17-3.01,28.21-5.45,42.46-5.49v63.62c-4.07.94-8.2.58-12.26,2.19-2.09.85-4.49-.05-6.58,1.53-.26.19-.72.06-1.07.15-1.38.36-2.84-.14-4.16.94-1.17.96-2.9-.13-3.94,1.43-15.4,3.86-40.56,17.02-35.84,35.88,4.79,12.03,25.57,7.92,35.8,2.72,6.59-1.78,12.18-5.9,17.93-9.53,3.63-1.82,6.39-5.1,9.73-7.38.62,2.68.86,50.2.33,72.15ZM678.25,270.74c4.37,2.72,8.58,6.07,14.17,6.19,9.94,1.01,19.23.31,28.6-3.96,6.58-1.24,12.75-4.41,19.11-6.84,7.14-3.43,14.35-6.67,21.27-10.65.69-.4,1.61-.34,2.55-.52v66.53c-1.08,2.16-3.58,1.82-5.38,2.97-6.97,2.83-13.98,6.04-21.14,8.28-7.18,1.93-13.8,5.31-21.04,6.82-1.12.29-2.22.74-3.33,1.09-1,.31-2.02,0-3.05.94-.59.54-1.86.25-2.81.49-.88.22-1.77.95-2.6.95-14.55,2.5-29.46,5-44.01,4.97-12.07-.58-24.1-2.28-34.96-7-37.07-15.28-43.98-59.52-32.01-97.79,16.12-48.62,68.74-78.31,115.56-79.16,14.37-.93,29.55,1.09,41.25,8.7,16.9,10.57,19.38,36.58,7.78,54.72-9.55,14.19-25.11,23.22-40.34,29.32-13.25,5.59-26.71,10.16-40.56,12.49.49.78.62,1.27.94,1.47ZM979.74,433.47c-4.79,24.92-11.49,50.67-23.47,74.43-28.81,3.3-57.76,6.61-87.04,9.96,8.44-16.94,15.9-34.23,21.37-52.15,2.03-7.67,4.94-15.43,4.97-23.19.08-1.14-.48-2.34.64-3.45-.01-3.52-.69-7.39-1.54-10.74-8.64-14.88-26.48,1.75-30.69,14.2-11.22,25.07-7.94,51.42-8.35,76.94-26.42,3.02-52.63,6.03-78.98,9.04v-132.8h-.1v-234.25c26.25-3.01,52.46-6.01,78.91-9.03v75.94c.17,0,.34.01.51.02,2.66-22.79,9.76-47.11,25.91-65.85,18.58-20.9,52.14-32.52,74.18-18.1,26.23,16.74,23.27,69.95,13.89,99.08-16.71,51.3-66.01,75.74-114.33,83.1v102.82c.17-.03.34-.06.51-.09.81-1.99-.47-3.88.73-5.96.83-1.48-.47-3.27.94-4.79,5.98-45.97,41.18-90.62,89.63-79.39,17.47,5.89,28.68,21.04,31.57,39.48,1.18.91.49,2.4.75,3.6,1.39,4.51,1.16,9.72,1.5,14.45,2.33,11.91-.82,24.51-1.53,36.73ZM1084.57,299.46c-26.2,3-52.41,6-78.93,9.04v-168.13c26.26-3.01,52.47-6.01,78.7-9.01.55,3.07.79,154.29.23,168.1ZM1089.14,87.63c-.7,1.27.46,3-.82,4.45-4.9,35.72-51.76,49.86-75.02,30.66-14.12-12.57-16.2-35.46-7.74-54.05,6.95-15.78,23.88-25.67,39.95-26.64,18.88-3.34,38.13,6.95,42.16,25.49,1.06,6.52,3.29,13.25,1.46,20.09ZM1277.43,277.44c-28.8,3.3-57.67,6.6-86.94,9.95,8.07-17.55,40.92-85.31,19.58-94.81-20.34-3.74-29.1,27.9-31.9,43.17-3.06,17.94-1.9,35.26-2.04,53.19-26.34,3.02-52.64,6.03-79.02,9.05v-168.07c26.28-3.01,52.57-6.02,78.99-9.04v78.01c.82.08.98-.65,1.4-.94.42-1.9-.45-3.73.5-5.66.81-1.65-.3-3.51,1.03-5.13,4.21-27.76,18.78-58.15,45.24-72.68,20.02-10.57,45.55-10.69,60.87,3.8,33.25,34.54,13.45,115.75-7.71,159.18Z"/><path class="cls-1" d="M488.26,278.44c11.41-4.8,25.89-14.37,26.17-27.89.24-4.89-2.76-7.56-6.83-8.29-13.18.12-20.17,15.08-20.11,26.51-.21,3.39,1.21,6.32.77,9.67Z"/><path class="cls-1" d="M858.77,268.04c2.92-1.79,6.17-2.74,9.03-4.61,4.57-2.98,9.4-5.42,13.48-9.35,8.14-7.24,15.11-16.21,13.44-26.99-3.94-5.87-11.38-7.68-18.03-2.79-12.97,8.87-19.46,29.57-20.35,44.08.81-.08,1.77.07,2.43-.33Z"/></g></svg>