<svg width="630" height="109" viewBox="0 0 630 109" fill="none" xmlns="http://www.w3.org/2000/svg">
<g clip-path="url(#clip0_19_264)">
<path d="M455.625 87.2168C450.909 87.2168 446.194 87.2168 441.481 87.2168C439.124 87.2168 436.766 87.2168 434.409 87.2168C433.194 87.2168 431.98 87.2168 430.765 87.2168C429.897 87.2168 428.245 87.544 427.46 87.1351C426.731 86.7552 427.532 84.6489 427.634 84.0364C427.878 82.5861 428.068 81.1286 428.238 79.6674C428.565 76.8322 428.803 73.9862 429.161 71.1529C428.839 66.653 430.745 54.5674 423.357 56.2721C420.395 58.7873 420.213 63.4908 420.267 67.0819C420.363 73.5391 421.317 79.8346 422.212 86.2173C422.408 87.6167 420.993 87.1823 420.073 87.1823C418.798 87.1823 417.522 87.1823 416.247 87.1823C413.694 87.1823 411.143 87.1823 408.59 87.1823C403.54 87.1823 398.489 87.155 393.439 87.1823C393.986 87.1787 394.558 79.9018 394.625 79.313C395.025 75.7545 395.489 72.1761 395.567 68.5922C395.619 66.2132 395.507 63.8252 395.133 61.4753C394.904 60.045 394.539 58.5838 393.656 57.4407C391.651 54.8436 387.971 56.5683 387.51 59.5343C386.329 63.5744 386.703 67.8489 386.901 71.998C386.963 73.272 388.18 87.175 388.776 87.1242C384.372 87.5149 379.966 87.1587 375.563 87.1805C370.882 87.1805 366.201 87.2277 361.52 87.2495C361.223 87.2495 360.89 87.2368 360.686 87.0206C360.474 86.7934 360.488 86.4408 360.515 86.13C361.781 72.0743 362.418 58.0131 361.126 43.9356C361.034 42.9469 360.847 41.9656 360.731 40.9787C360.616 39.9919 360.179 38.2726 360.58 37.3385C361.083 36.1699 363.884 36.686 364.816 36.7369C367.191 36.8678 369.596 36.7805 371.976 36.7842C375.1 36.7842 378.224 36.7842 381.349 36.7878C384.422 36.7914 387.785 36.4116 390.823 36.8369C390.904 38.2999 389.53 40.2354 388.889 41.5203C388.095 43.1105 387.325 44.7607 387.188 46.5617C387.15 47.0488 387.164 47.5559 387.362 48.0029C389.121 51.9412 393.257 44.1537 394.146 42.8597C396.532 39.3921 400.039 36.4843 404.241 35.7228C407.661 35.1031 411.764 35.6319 414.901 37.1476C418.339 38.8087 420.638 42.2073 420.835 46.0656C420.862 46.6054 420.849 47.1542 420.979 47.6794C421.108 48.2047 421.409 48.719 421.893 48.9516C422.377 49.1842 422.966 49.0916 423.434 48.8317C425.352 47.7685 426.306 45.0151 427.487 43.2614C428.969 41.0641 430.709 38.7197 433.032 37.3766C435.311 36.059 438.021 35.5756 440.624 35.641C443.397 35.7119 446.207 36.3643 448.533 37.8891C453.091 40.8751 454.397 46.3873 454.665 51.5196C455 57.9423 453.686 64.2995 453.772 70.7149C453.812 73.67 454.121 76.6123 454.532 79.5365C454.62 80.1672 455.643 87.2223 455.623 87.2223L455.625 87.2168Z" fill="#002B00"/>
<path d="M177.76 24.5221C177.774 24.593 177.776 24.6693 177.776 24.7438C177.767 30.5159 177.774 36.2879 177.774 42.0599C177.774 43.4921 177.873 44.9623 177.774 46.3908C177.695 47.5503 177.259 47.1668 176.296 46.9306C174.993 46.6107 173.693 46.269 172.391 45.9328C170.418 45.4221 168.402 45.0841 166.373 44.9169C159.155 44.3262 149.165 45.3949 147.33 54.0493C146.677 57.128 147.037 61.0317 148.367 63.8905C149.305 65.906 151.19 68.6448 153.748 68.205C155.268 67.9433 156.186 66.4421 156.312 65.0027C156.521 62.6256 156.06 60.2084 155.111 58.0294C154.153 55.8358 152.436 54.4146 151.244 52.4318C151.134 52.2483 151.039 52.0429 151.046 51.8266C151.059 51.4504 151.395 51.1487 151.757 51.0506C152.944 50.7325 154.467 51.0433 155.686 51.0506C163.451 51.0506 171.214 51.1851 178.979 51.1851C179.054 51.1851 179.137 51.1869 179.196 51.2378C179.263 51.2941 179.274 51.3941 179.279 51.4813C179.99 63.2635 179.403 75.0038 179.582 86.7933C179.585 86.9805 179.585 87.1749 179.504 87.3421C179.146 88.0873 177.067 87.9164 176.37 88.0182C174.586 88.2763 172.955 88.3344 171.241 87.6456C169.042 86.7624 167.737 85.0631 166.436 83.1658C165.568 81.899 164.567 80.0507 162.936 79.72C162.3 79.5909 161.636 79.7418 161.034 79.9889C159.059 80.7995 157.626 82.5333 156.031 83.8927C154.447 85.2412 152.816 86.5661 150.848 87.2949C143.485 90.0191 134.51 87.4839 129.172 81.8118C120.471 72.5685 119.43 57.3097 121.277 45.3349C122.129 39.8118 123.827 34.3088 127.634 30.1033C131.246 26.1232 136.109 23.4317 141.245 22.0486C141.663 21.9359 142.084 21.8324 142.505 21.736C149.055 20.2567 155.871 20.2385 162.507 21.0836C165.46 21.4598 168.367 22.0686 171.284 22.6411C173.394 23.0555 175.466 23.2408 177.437 24.1895C177.54 24.2386 177.648 24.2949 177.709 24.3912C177.735 24.4312 177.749 24.473 177.76 24.5185V24.5221Z" fill="#002B00"/>
<path d="M277.84 87.126C277.826 87.126 277.811 87.126 277.797 87.126C278.067 87.1332 279.228 84.2563 279.39 83.911C279.925 82.7715 280.427 81.6138 280.847 80.4252C281.284 79.1894 282.865 75.4001 280.629 74.9531C280.125 74.8513 279.606 75.0403 279.162 75.3002C278.006 75.9799 277.206 77.1339 276.529 78.2989C272.844 84.6452 266.746 89.4868 259.062 88.3C254.68 87.6239 251.026 83.871 249.436 79.8237C248.125 76.4869 247.835 72.8285 247.891 69.2392C247.952 65.3082 248.386 61.3735 248.397 57.4497C248.406 54.004 248.233 50.5582 247.929 47.1251C247.774 45.3823 247.585 43.643 247.371 41.9074C247.268 41.0714 247.158 40.2354 247.045 39.3994C246.959 38.7706 246.667 38.1327 246.676 37.493C246.692 36.448 247.432 36.5243 248.327 36.5061C253.422 36.4007 258.517 36.3952 263.612 36.4043C265.405 36.4043 267.198 36.3389 268.99 36.2989C270.585 36.2644 272.493 35.9991 274.059 36.3589C274.473 36.4534 274.877 36.6806 275.093 37.0495C275.233 37.2912 275.285 37.5747 275.298 37.8546C275.341 38.8705 274.938 39.8901 274.76 40.8806C274.562 41.9801 274.398 43.0851 274.234 44.19C273.842 46.8634 273.557 49.555 273.442 52.2556C273.283 55.9649 273.103 59.7651 273.901 63.4163C274.128 64.4558 274.439 65.4972 275.042 66.3713C276.348 68.2596 278.699 68.5976 280.181 66.7312C281.585 64.961 281.768 62.3967 282.044 60.2285C282.526 56.4393 282.19 52.8099 281.821 49.0407C281.624 47.0325 281.365 45.0333 281.07 43.0378C280.881 41.7529 280.539 40.4989 280.332 39.2177C280.265 38.8033 279.934 37.6238 280.152 37.2494C280.37 36.875 281.477 36.9823 281.918 36.9477C284.788 36.7169 287.643 36.5388 290.52 36.4734C295.901 36.3498 301.266 36.6133 306.644 36.6133C307.096 36.6188 307.575 36.6315 307.955 36.8823C308.752 37.4094 308.18 38.7415 308.109 39.4885C307.996 40.697 307.89 41.9056 307.793 43.116C307.472 47.0688 307.092 51.0852 307.092 55.0544C306.721 65.7571 307.416 76.4833 308.297 87.146C308.2 86.0246 293.573 86.8988 291.914 86.9242C287.227 86.9969 282.521 87.2241 277.835 87.126H277.84Z" fill="#002B00"/>
<path d="M214.079 88.1982C209.625 88.1837 205.171 87.6821 200.819 86.708C197.404 85.9447 194.009 84.4017 191.2 82.2971C181.793 75.2511 180.852 61.1391 184.618 50.7545C185.084 49.4678 185.635 48.2119 186.285 47.007C186.96 45.7548 187.706 44.6426 188.69 43.6194C191.625 40.5752 195.609 38.6125 199.604 37.4348C208.289 34.8741 217.93 34.925 226.734 36.8114C231.24 37.7765 235.757 39.7338 239.122 42.9724C243.297 46.987 244.856 52.7282 245.353 58.3512C245.792 63.3181 245.495 68.4123 243.742 73.1175C241.967 77.8827 238.663 81.8683 234.173 84.2381C233.968 84.3454 233.762 84.4508 233.555 84.5525C230.05 86.2718 226.152 87.1532 222.307 87.6657C219.579 88.0292 216.828 88.2055 214.079 88.1946V88.1982ZM206.199 57.7151C205.923 58.5547 205.862 59.4671 206.053 60.3249C206.813 63.7397 210.862 65.4735 214.058 65.2736C216.366 65.1301 218.814 64.8556 220.647 63.2854C221.923 62.1913 222.753 60.4975 222.575 58.8164C222.348 56.6792 220.562 54.9708 218.564 54.2311C215.269 53.0117 210.106 53.128 207.43 55.716C206.865 56.263 206.446 56.9591 206.199 57.7133V57.7151Z" fill="#002B00"/>
<path d="M568.228 62.0712C565.011 62.8673 561.256 62.2911 557.981 62.2911C555.975 62.2911 553.97 62.2839 551.964 62.2802C550.344 62.2766 548.725 62.2693 547.105 62.2457C545.346 62.2185 545.002 64.1358 545.942 65.4189C547.508 67.5579 551.264 67.6107 553.617 67.7724C562.736 68.3958 572.171 65.5643 580.221 61.4006C580.05 62.1476 580.086 62.9254 580.123 63.6924C580.374 68.7974 580.552 73.8879 580.57 79.0021C580.579 81.4883 581.128 84.3216 578.112 85.0304C575.399 85.6646 572.618 85.9863 569.883 86.5315C566.864 87.1331 563.821 87.6202 560.762 87.9473C554.71 88.5961 548.599 88.5943 542.575 87.6747C536.351 86.7242 530.122 84.487 525.868 79.6236C519.862 72.7593 518.8 61.964 521.362 53.4223C523.232 47.1868 527.537 41.9672 533.33 39.0903C541.047 35.2574 550.292 34.7613 558.685 35.9626C564.9 36.8531 572.087 38.4742 575.711 44.1735C579.628 50.3327 575.365 60.1266 568.488 62.0076C568.401 62.0313 568.315 62.0531 568.228 62.0749V62.0712ZM546.019 56.5464C548.657 58.8308 553.448 57.5332 556.686 57.4187C559.671 57.6132 561.771 54.1638 558.699 52.4481C555.25 50.5017 545.22 50.8143 546.019 56.5464Z" fill="#002B00"/>
<path d="M513.676 49.8493C513.763 53.0861 512.551 56.2247 510.274 58.511C507.726 61.0681 504.061 62.1276 500.554 62.4548C496.177 62.8637 491.77 62.1912 487.397 62.0404C485.672 61.9804 482.188 61.6042 482.361 64.3012C482.399 64.8919 482.64 65.468 483.031 65.9078C483.575 66.5184 484.365 66.8419 485.148 67.0618C488.518 68.0069 492.528 67.8415 495.995 67.5998C499.817 67.3345 503.598 66.573 507.26 65.4425C509.095 64.8755 510.9 64.2158 512.672 63.4743C513.235 63.2381 517.103 61.9513 517.103 61.2844C517.103 68.8592 517.103 76.3033 517.103 83.8455C517.099 84.3816 513.115 85.0722 512.582 85.2049C505.654 86.9187 498.624 88.1436 491.482 88.3744C482.872 88.6525 473.293 87.7256 466.041 82.586C459.151 77.7027 456.278 68.6284 456.83 60.3811C457.198 54.898 459.003 48.7934 462.717 44.6516C470.882 35.5464 484.669 34.1161 496.031 35.9753C500.404 36.6914 504.983 37.7073 508.666 40.3262C511.923 42.6433 513.579 46.2327 513.675 49.8493H513.676ZM496.888 54.102C496.631 53.3205 495.995 52.6608 495.289 52.2101C492.884 50.6708 489.597 50.8434 486.992 51.7267C485.755 52.1465 484.298 52.6735 483.387 53.6549C481.171 56.043 484.203 57.7132 486.318 57.9385C488.751 58.1984 497.12 58.8963 497.009 54.7817C497.002 54.5473 496.96 54.3201 496.888 54.102Z" fill="#002B00"/>
<path d="M627.545 56.0393C627.15 56.3083 626.645 56.4319 626.16 56.4555C622.208 56.6445 618.174 56.1047 614.204 56.1865C612.2 56.2283 607.797 55.6631 607.296 58.5473C606.979 60.2684 608.106 61.7696 609.577 62.4783C610.029 62.6964 610.504 62.8636 610.989 62.9999C613.747 63.776 616.721 63.4997 619.479 62.8727C621.625 62.3856 625.042 61.8368 626.711 60.3338C626.857 60.3665 626.988 60.4828 627.008 60.6428C627.514 64.6483 628.042 68.652 628.571 72.6539C628.693 73.5881 630.393 84.0181 629.921 84.1598C617.587 87.8401 604.273 91.0732 592.074 85.1976C591.033 84.696 590.099 83.9835 589.219 83.2311C581.578 76.6976 581.403 64.7937 585.483 56.232C585.944 55.2651 586.437 54.3146 586.943 53.3841C586.039 53.0988 584.84 53.2314 583.89 53.2769C583.528 53.2932 583.152 53.3187 582.813 53.1878C581.807 52.8043 582.034 51.574 582.025 50.7271C582.008 49.2804 581.992 47.8338 581.976 46.3871C581.956 44.6679 581.938 42.9468 581.918 41.2276C581.906 40.0208 581.393 37.7581 582.406 36.8585C582.84 36.4732 583.404 36.277 583.94 36.0589C587.197 34.7431 590.232 32.3587 591.723 29.0928C592.042 28.3949 592.299 27.6534 592.778 27.0573C593.828 25.7524 595.975 26.2431 597.423 26.2086C599.627 26.1577 601.83 26.1377 604.034 26.1486C606.237 26.1595 608.439 26.2013 610.643 26.2722C612.553 26.334 615.327 25.976 617.103 26.6448C616.885 26.5939 615.2 29.7216 615.03 29.9979C613.896 31.848 612.67 33.7054 611.705 35.65C610.944 37.1839 610.456 38.9522 610.859 40.6187C611.84 44.6788 617.931 38.894 619.657 37.8181C621.472 36.6877 623.483 35.7281 625.627 35.4991C627.026 35.3501 627.847 35.5555 627.953 37.1293C628.166 40.2898 628.33 43.5938 628.362 46.816C628.385 49.1587 628.353 51.5031 628.342 53.8457C628.339 54.4564 628.324 55.1088 627.98 55.6104C627.863 55.7812 627.718 55.9212 627.55 56.0357L627.545 56.0393Z" fill="#002B00"/>
<path d="M311.356 86.7496C311.976 83.5582 312.12 80.2524 312.381 77.0156C312.667 73.4808 312.841 69.9369 312.913 66.3911C313.099 57.4187 312.941 48.3226 311.56 39.441C311.398 38.4033 310.924 36.9239 312.138 36.4387C313.304 35.9734 315.006 36.4114 316.242 36.426C318.03 36.4478 319.818 36.4696 321.607 36.4896C326.431 36.5477 331.256 36.4968 336.079 36.4787C336.325 36.4787 336.606 36.4914 336.77 36.6786C336.986 36.9276 336.867 37.3128 336.727 37.6109C335.546 40.1135 332.87 42.8486 333.254 45.8382C333.371 46.7542 333.954 47.6847 334.849 47.8774C335.978 48.1191 336.977 47.154 337.733 46.2744C342.76 40.4242 349.155 36.1588 356.948 35.51C357.292 35.4809 357.658 35.4646 357.96 35.6318C358.868 36.1352 358.597 37.9707 358.623 38.8176C358.673 40.4715 358.74 42.1235 358.797 43.7773C358.797 45.5638 360.2 64.7246 358.189 64.7246C352.111 63.7032 346.116 59.7558 339.773 60.8317C338.601 61.0298 337.33 61.6986 336.775 62.8091C336.12 64.1194 336.608 65.6951 337.035 66.9945C337.591 68.6811 338.091 70.3858 338.522 72.1105C339.1 74.4222 339.613 76.7539 339.942 79.1165C340.236 81.2138 340.702 83.869 340.304 85.9663C340.079 87.1567 339.298 87.6383 338.158 87.6219C333.486 87.5511 328.811 87.3003 324.124 87.293C323.051 87.293 311.342 86.8368 311.347 86.8114C311.351 86.7914 311.354 86.7714 311.358 86.7514L311.356 86.7496Z" fill="#002B00"/>
<path d="M73.3987 88.847C73.2187 85.1286 71.8198 81.8337 69.807 78.7514C69.6108 78.4515 69.4109 78.1553 69.2075 77.8609C66.3881 73.8063 62.8216 70.1769 58.7744 67.3854C57.5358 66.5312 56.3889 65.5571 55.6418 64.2159C55.2025 63.4289 54.9343 62.5566 54.8586 61.6552C54.7524 60.3703 55.0459 59.2326 55.631 58.1022C56.2161 56.9699 56.9759 55.8032 56.7634 54.4637C56.5474 53.0952 55.2799 52.2992 53.9999 52.3192C53.9999 52.3192 53.9927 52.3192 53.9909 52.3192C53.9891 52.3192 53.9837 52.3192 53.9819 52.3192C52.7018 52.2992 51.4362 53.0952 51.2183 54.4637C51.0059 55.805 51.7656 56.9699 52.3508 58.1022C52.9359 59.2326 53.2293 60.3703 53.1231 61.6552C53.0475 62.5566 52.7792 63.4289 52.3399 64.2159C51.591 65.5571 50.446 66.5312 49.2073 67.3854C45.1601 70.1769 41.5936 73.8044 38.7743 77.8609C38.5708 78.1553 38.3692 78.4515 38.1748 78.7514C36.162 81.8337 34.7613 85.1286 34.583 88.847C34.412 92.3818 35.2186 95.9657 36.9163 99.0644C37.0081 99.2334 37.1035 99.4006 37.2008 99.566C40.6412 105.403 47.2431 109.175 53.9909 108.995C60.7386 109.176 67.3405 105.403 70.781 99.566C70.8782 99.4006 70.9736 99.2334 71.0654 99.0644C72.765 95.9657 73.5697 92.3818 73.3987 88.847Z" fill="#002B00"/>
<path d="M27.6256 83.7473C31.0733 82.4261 33.745 80.0635 36.0261 77.1793C36.2475 76.8994 36.4654 76.6141 36.6796 76.3269C39.6286 72.3668 41.9456 67.8215 43.3247 63.0745C43.746 61.6206 44.3113 60.2194 45.3429 59.0871C45.9496 58.422 46.6878 57.8949 47.5141 57.5442C48.6916 57.0444 49.8528 56.9753 51.1005 57.188C52.3481 57.4006 53.6822 57.7695 54.8794 57.1498C56.1018 56.5192 56.4601 55.0562 56.046 53.8349C56.046 53.8349 56.0442 53.8294 56.0424 53.8258C56.0406 53.8221 56.0424 53.8203 56.0388 53.8167C55.6626 52.5827 54.5211 51.6122 53.1655 51.8266C51.8368 52.0375 50.9726 53.1261 50.0869 54.0384C49.2029 54.9489 48.2217 55.5832 46.9776 55.8776C46.1063 56.083 45.2007 56.0957 44.3221 55.9176C42.8278 55.6141 41.555 54.8144 40.3667 53.8894C36.487 50.8671 31.9663 48.5644 27.2746 47.1105C26.9343 47.0051 26.594 46.9051 26.2502 46.8088C22.7251 45.8292 19.1874 45.5039 15.6281 46.4799C12.2452 47.4086 9.11797 49.2896 6.7235 51.8775C6.59388 52.0175 6.46605 52.161 6.34003 52.3064C1.90395 57.4133 0.389853 64.9173 2.6457 71.34C4.55948 77.8735 10.1532 83.0458 16.7173 84.547C16.9027 84.5888 17.0899 84.6288 17.2772 84.6651C20.7213 85.3394 24.3472 85.005 27.6238 83.7492L27.6256 83.7473Z" fill="#002B00"/>
<path d="M18.2846 38.229C20.5944 41.1295 23.646 42.9669 27.0685 44.2645C27.4016 44.3917 27.7364 44.5117 28.0731 44.628C32.7162 46.2364 37.714 47.056 42.6128 46.9125C44.1125 46.8689 45.6068 46.9761 46.993 47.6176C47.8068 47.9938 48.5323 48.5408 49.1175 49.226C49.951 50.2019 50.3759 51.296 50.5613 52.5591C50.7468 53.824 50.8116 55.2161 51.764 56.1757C52.7362 57.1535 54.2251 57.0463 55.2477 56.2702C55.2477 56.2702 55.2531 56.2666 55.2549 56.2648C55.2567 56.263 55.2603 56.2611 55.2621 56.2593C56.3099 55.5178 56.8698 54.1202 56.2487 52.8844C55.6401 51.674 54.3475 51.1815 53.2133 50.6127C52.0808 50.0457 51.1807 49.2987 50.5199 48.1974C50.0554 47.4232 49.7656 46.5581 49.6612 45.6603C49.4865 44.1319 49.8448 42.6634 50.3507 41.2367C51.9998 36.5769 52.7722 31.5264 52.6912 26.5722C52.6858 26.2142 52.675 25.8543 52.6587 25.4963C52.4931 21.8088 51.7064 18.3121 49.6864 15.1971C47.7654 12.2366 45.027 9.81582 41.8494 8.31647C41.6766 8.23469 41.5019 8.15654 41.3273 8.08021C35.1449 5.39956 27.6068 6.26464 22.2544 10.4156C16.6895 14.2721 13.546 21.2418 14.16 28.0061C14.178 28.1988 14.1978 28.3896 14.2212 28.5804C14.6515 32.0953 16.0863 35.472 18.281 38.2308L18.2846 38.229Z" fill="#002B00"/>
<path d="M58.2862 15.1953C56.2662 18.3103 55.4794 21.807 55.3138 25.4945C55.2976 25.8525 55.2868 26.2123 55.2814 26.5704C55.2021 31.5246 55.9727 36.5751 57.6218 41.2349C58.1259 42.6616 58.486 44.13 58.3114 45.6584C58.2087 46.5562 57.9171 47.4213 57.4526 48.1955C56.7919 49.2987 55.8917 50.0438 54.7593 50.6108C53.625 51.1797 52.3324 51.6722 51.7239 52.8826C51.1027 54.1184 51.6644 55.5142 52.7105 56.2557C52.7105 56.2557 52.7159 56.2593 52.7177 56.2611C52.7195 56.2629 52.7231 56.2647 52.7249 56.2666C53.7475 57.0426 55.2364 57.1498 56.2085 56.1721C57.1609 55.2143 57.2257 53.8204 57.4112 52.5554C57.5966 51.2942 58.0215 50.1983 58.8551 49.2223C59.4402 48.5372 60.1657 47.992 60.9795 47.6158C62.3658 46.9742 63.8601 46.867 65.3597 46.9106C70.2585 47.0542 75.2563 46.2346 79.8994 44.6262C80.2361 44.5098 80.5709 44.3881 80.904 44.2627C84.3265 42.9632 87.3781 41.1277 89.6879 38.2271C91.8844 35.4683 93.3193 32.0916 93.7477 28.5768C93.7711 28.3859 93.791 28.1933 93.809 28.0025C94.4229 21.2381 91.2795 14.2702 85.7146 10.4119C80.3603 6.26098 72.824 5.3959 66.6416 8.07655C66.467 8.15288 66.2923 8.23103 66.1195 8.31281C62.9419 9.81216 60.2017 12.2329 58.2826 15.1935L58.2862 15.1953Z" fill="#002B00"/>
<path d="M92.3472 46.4799C88.7897 45.5039 85.2502 45.8292 81.7251 46.8088C81.383 46.9033 81.041 47.0051 80.7007 47.1105C76.009 48.5644 71.4883 50.8671 67.6085 53.8894C66.4203 54.8144 65.1492 55.6141 63.6531 55.9176C62.7746 56.0957 61.8708 56.0848 60.9976 55.8776C59.7554 55.5832 58.7742 54.9489 57.8884 54.0384C57.0026 53.1261 56.1384 52.0375 54.8098 51.8266C53.4541 51.6122 52.3109 52.5827 51.9364 53.8167C51.9364 53.8167 51.9346 53.8221 51.9328 53.8258C51.931 53.8294 51.931 53.8312 51.9292 53.8349C51.5133 55.0562 51.8734 56.5192 53.0958 57.1498C54.2931 57.7677 55.6253 57.3988 56.8748 57.1861C58.1206 56.9735 59.2837 57.0426 60.4611 57.5423C61.2875 57.8931 62.0256 58.4201 62.6323 59.0853C63.6639 60.2176 64.2274 61.6188 64.6505 63.0727C66.0296 67.8197 68.3467 72.365 71.2956 76.3251C71.5099 76.6123 71.7277 76.8958 71.9492 77.1757C74.2302 80.0599 76.9037 82.4225 80.3496 83.7437C83.6263 84.9995 87.2522 85.3339 90.6963 84.6597C90.8835 84.6233 91.0707 84.5834 91.2562 84.5415C97.8185 83.0422 103.412 77.8699 105.328 71.3346C107.584 64.9119 106.069 57.4097 101.633 52.301C101.507 52.1556 101.38 52.0138 101.25 51.8721C98.8555 49.2841 95.7282 47.4031 92.3454 46.4744L92.3472 46.4799Z" fill="#002B00"/>
</g>
<defs>
<clipPath id="clip0_19_264">
<rect width="630" height="109" fill="white"/>
</clipPath>
</defs>
</svg>
