<svg width="160" height="192" viewBox="0 0 160 192" fill="none" xmlns="http://www.w3.org/2000/svg">
<g clip-path="url(#clip0_41_3002)">
<path d="M63.9452 176.821C57.2964 174.988 51.1598 171.908 45.7238 167.66C40.2878 163.412 35.7998 158.219 32.3944 152.202L15.6012 123.053C10.4831 114.039 13.7396 102.48 22.8604 97.2793C24.9595 96.0765 27.3077 95.293 29.7305 94.9509C30.0153 88.4224 33.6158 82.4853 39.4401 79.1672C41.5689 77.9585 43.8352 77.1665 46.1799 76.8029C46.3486 70.1863 50.0376 63.979 55.9249 60.6362C57.272 59.8713 58.7005 59.2691 60.164 58.845L46.0858 33.9928C43.6131 29.5799 43.0008 24.4734 44.3733 19.6475C45.7362 14.8049 48.9069 10.7834 53.3033 8.32008C55.3893 7.11363 57.7078 6.33598 60.1662 6.01772C62.6376 5.70306 65.1042 5.864 67.5066 6.51223C69.9705 7.19146 72.1168 8.26005 74.0851 9.77054C76.0498 11.2941 77.685 13.1476 78.9126 15.3096L93.2902 40.3986C96.6985 37.5507 100.797 35.4543 105.038 34.4209C109.744 33.2774 114.519 33.3593 119.251 34.6638C123.983 35.9684 128.228 38.3308 132.174 41.7752C135.779 44.9293 137.325 49.5497 136.212 53.8438C134.538 60.0174 129.902 64.5189 123.47 66.2246C121.426 66.7694 117.71 69.2096 116.217 72.74C115.897 73.4935 115.691 74.2923 115.602 75.1235L115.216 78.664L117.121 81.9807L117.196 82.1138L119.946 86.8976C139.22 120.939 134.714 150.362 107.248 169.751L106.88 170.014L103.65 171.859C97.6597 175.272 91.1411 177.445 84.2999 178.294C77.4551 179.157 70.607 178.658 63.9582 176.825L63.9452 176.821Z" fill="#FF73B5"/>
<path d="M64.4362 175.035C58.0221 173.267 52.1094 170.29 46.8663 166.208C41.6138 162.109 37.2983 157.103 34.0158 151.303L17.2261 122.14C12.6085 114.008 15.5618 103.6 23.8012 98.8995C26.196 97.5397 28.8881 96.7809 31.6045 96.646C31.286 90.372 34.4936 84.1303 40.3809 80.7874C42.809 79.4088 45.4359 78.632 48.0871 78.4791C47.6396 72.1135 50.8584 65.6784 56.8657 62.2564C58.8115 61.1516 60.9021 60.4374 63.0449 60.1443L47.7202 33.0969C45.4836 29.0997 44.9505 24.5201 46.1805 20.1599C47.4105 15.7997 50.2634 12.1675 54.231 9.9367C56.0972 8.86604 58.2045 8.14238 60.4291 7.85788C62.6407 7.56978 64.8713 7.72177 67.039 8.30531C69.2553 8.91626 71.2167 9.89183 72.9625 11.2428C74.7437 12.6176 76.2028 14.2963 77.3112 16.229L92.835 43.3173C96.2697 39.9156 100.697 37.3907 105.479 36.226C109.868 35.1634 114.338 35.2314 118.757 36.4497C123.177 37.668 127.218 39.9041 130.961 43.1666C134.037 45.8519 135.357 49.7648 134.417 53.3773C132.923 58.8991 128.775 62.9038 123.006 64.4418C120.527 65.0909 116.267 67.8724 114.517 72.0331C114.124 72.9488 113.881 73.9338 113.762 74.925L113.308 79.0643L115.487 82.8633L115.531 82.9595L118.328 87.8264C137.076 120.924 132.743 149.468 106.16 168.245L105.863 168.458L102.703 170.252C96.929 173.542 90.6419 175.638 84.0475 176.457C77.4495 177.29 70.8504 176.803 64.4362 175.035Z" fill="#FF73B5"/>
<path d="M65.9118 169.677C60.2017 168.103 54.9535 165.464 50.2773 161.818C45.6142 158.176 41.7645 153.72 38.8408 148.551L22.0323 119.356C18.9444 113.917 20.9633 106.899 26.5382 103.723C29.2324 102.193 32.4904 101.772 35.4759 102.595C38.005 103.293 40.2152 104.842 41.6837 106.944L41.7628 107.064L46.7896 115.646L46.9393 115.561L41.4368 106.16L38.5751 101.275C35.4814 95.8075 37.53 88.7833 43.1215 85.5974C45.9321 84.0015 49.1214 83.5761 52.1198 84.4027C54.3231 85.0101 56.2482 86.2702 57.6631 88.0069L57.8627 87.8936L59.6947 91.12L59.6281 91.1577L67.1695 104.459L67.3192 104.374L55.041 82.7111C51.9531 77.2729 54.0147 70.2523 59.6062 67.0664C62.3705 65.4858 65.5918 65.0973 68.6685 65.9454C71.0021 66.5887 73.0018 67.8834 74.4712 69.6772L74.6874 69.5545L76.5193 72.7808L76.4528 72.8186L87.8056 92.8514L87.9552 92.7664L52.5547 30.3621C51.0604 27.6918 50.6881 24.6153 51.5264 21.6762C52.348 18.7465 54.2833 16.3061 56.9572 14.7988C58.2414 14.0586 59.6636 13.581 61.1479 13.387C62.6322 13.193 64.1323 13.2979 65.5829 13.6838C67.0822 14.0971 68.3886 14.7518 69.571 15.6529C70.7629 16.5706 71.7431 17.6965 72.4926 18.9972L110.584 85.4818C110.659 85.6149 110.722 85.7443 110.784 85.8738L111.245 86.646L113.518 90.6113C125.646 112.008 133.648 142.058 102.974 163.72L102.904 163.771L99.9765 165.433C94.834 168.364 89.245 170.218 83.3743 170.956C77.5036 171.694 71.6314 171.268 65.9213 169.694L65.9118 169.677ZM92.4569 53.5378L92.8649 52.6684C95.3714 47.3415 100.702 43.1159 106.778 41.6345C110.236 40.7924 113.768 40.8542 117.275 41.821C120.782 42.7877 124.192 44.6675 127.302 47.3766C128.456 48.382 129.52 50.1201 129.036 51.9786C128.468 54.0384 126.773 57.6951 121.582 59.0698C117.439 60.158 111.861 64.0069 109.391 69.8629C108.789 71.2821 108.405 72.7755 108.234 74.3134L107.612 79.9775L92.4699 53.5414L92.4569 53.5378Z" fill="#FF73B5"/>
<path d="M34.9931 104.398C32.5552 103.726 29.8289 103.999 27.4673 105.339C22.7738 108.015 21.0582 113.883 23.6456 118.44L40.4635 147.652C43.2645 152.605 46.9545 156.876 51.4212 160.366C55.9009 163.859 60.9418 166.385 66.4043 167.891C71.8667 169.397 77.5065 169.801 83.1268 169.106C88.7637 168.402 94.1083 166.621 99.0345 163.812L101.878 162.198C131.417 141.346 123.629 112.251 111.879 91.5202L109.606 87.5549L109.572 87.5738C109.346 87.1746 109.142 86.7957 108.941 86.4038L70.876 19.9264C70.2527 18.8287 69.4322 17.8871 68.4368 17.1218C67.4414 16.3564 66.3197 15.7947 65.1037 15.4735C63.8913 15.1393 62.6367 15.0599 61.3861 15.2202C60.1356 15.3805 58.9579 15.7852 57.8602 16.4085C55.6187 17.6703 54.0048 19.7082 53.3125 22.1686C52.6203 24.629 52.9192 27.2083 54.1716 29.4332L90.4512 93.4826L87.0752 95.3996L73.8905 72.1404C72.6759 69.982 70.6366 68.4238 68.1596 67.741C65.5652 67.0258 62.8506 67.3576 60.5057 68.6891C55.7956 71.3745 54.0467 77.2609 56.6341 81.8177L60.4454 88.5496C60.4454 88.5496 60.4454 88.5496 60.4549 88.5662L69.8152 105.09L66.4427 106.994L57.0694 90.4665C55.8702 88.3544 53.9315 86.838 51.5979 86.1947C49.0818 85.5011 46.3861 85.8662 44.0079 87.2165C39.2978 89.9019 37.5619 95.7919 40.1363 100.345L43.4111 105.919C43.6202 106.229 43.8032 106.532 43.9827 106.848L43.9696 106.845L49.4497 116.225L46.1056 118.179L40.1426 108.006C38.8773 106.184 37.0174 104.942 34.9706 104.378L34.9931 104.398ZM94.5554 53.4571L106.395 74.1151C106.606 72.1812 107.108 70.5102 107.683 69.1395C110.4 62.6924 116.544 58.4667 121.11 57.2706C125.406 56.1401 126.799 53.1717 127.246 51.4994C127.53 50.4694 126.827 49.406 126.091 48.7683C120.359 43.7652 113.655 41.8752 107.22 43.4398C101.673 44.7863 96.7994 48.6751 94.5554 53.4571Z" fill="#FF73B5"/>
<path d="M126.024 126.882C126.274 115.491 122.595 102.988 115.076 89.7069L112.793 85.725L111.005 82.5948L109.433 79.8472L110.015 74.4806C110.166 73.1194 110.506 71.7825 111.035 70.5255C113.178 65.4491 118.187 61.7801 122.031 60.7635C126.465 59.5872 129.645 56.55 130.771 52.4138C131.36 50.1773 130.48 47.7185 128.491 45.9779C125.178 43.0867 121.574 41.0973 117.755 40.0443C113.935 38.9913 110.121 38.9358 106.362 39.8495C100.514 41.2674 95.3054 45.0498 92.2913 49.9281L74.0465 18.1059C73.1872 16.5925 72.0438 15.2954 70.6685 14.2289C69.3027 13.1791 67.7854 12.4242 66.1428 11.9713L66.0385 11.9426C64.3697 11.4826 62.6337 11.3687 60.912 11.6095C59.1809 11.8337 57.5403 12.3914 56.0363 13.2674C52.9835 14.9788 50.7602 17.8027 49.7961 21.1981C48.8451 24.5971 49.2647 28.1636 50.982 31.2461L69.7875 64.4433C69.5659 64.3822 69.3609 64.3116 69.1393 64.2505C65.6063 63.2766 61.9009 63.7421 58.7114 65.5421C52.5212 69.068 50.1046 76.664 53.0469 82.8337C52.8905 82.7905 52.7471 82.751 52.5907 82.7079C49.1359 81.7555 45.453 82.2412 42.2267 84.0731C36.1529 87.5329 33.7119 94.9118 36.4066 101.013C36.2501 100.97 36.1067 100.931 35.9503 100.887C32.5085 99.9386 28.7605 100.406 25.647 102.185C19.2073 105.853 16.8865 113.966 20.456 120.253L37.2834 149.482C40.3015 154.817 44.3108 159.457 49.1573 163.248C54.0075 167.025 59.476 169.781 65.4208 171.42C71.3656 173.059 77.4572 173.504 83.5747 172.735C89.6921 171.967 95.496 170.046 100.842 166.989L103.689 165.361L103.839 165.276L103.979 165.174C118.246 155.094 125.668 142.214 126.007 126.891L126.024 126.882ZM107.227 43.4266C110.399 42.6596 113.635 42.7242 116.79 43.5939C119.945 44.4636 123.19 46.2279 126.098 48.755C126.834 49.3928 127.524 50.4526 127.253 51.4861C126.793 53.1549 125.4 56.1233 121.117 57.2573C116.564 58.457 110.42 62.6828 107.69 69.1263C107.115 70.497 106.613 72.168 106.402 74.1019L94.5625 53.4439C96.8101 48.6488 101.693 44.7766 107.227 43.4266ZM101.899 162.188L99.0547 163.803C94.1284 166.611 88.7708 168.388 83.147 169.097C77.51 169.801 71.8869 169.387 66.4244 167.881C60.962 166.376 55.9116 163.833 51.4413 160.356C46.9616 156.863 43.2846 152.595 40.4836 147.643L23.6657 118.43C21.0877 113.89 22.794 108.006 27.4874 105.33C29.8526 103.976 32.5753 103.716 35.0132 104.388C37.073 104.956 38.9199 106.195 40.1852 108.017L46.1482 118.189L49.4923 116.235L44.005 106.881L44.0181 106.885C43.8423 106.556 43.6628 106.24 43.4502 105.943L40.1753 100.369C37.6009 95.8156 39.3368 89.9256 44.0469 87.2402C46.4251 85.8898 49.1208 85.5248 51.6369 86.2184C53.9705 86.8617 55.9092 88.378 57.1084 90.4901L66.4818 107.017L69.8542 105.114L60.4939 88.5898C60.4939 88.5898 60.4939 88.5898 60.4845 88.5732L56.6731 81.8414C54.0987 77.2881 55.8346 71.3981 60.5447 68.7127C62.8766 67.3777 65.5912 67.0459 68.1986 67.7646C70.6756 68.4475 72.7019 70.002 73.9295 72.164L87.1012 95.4196L90.4772 93.5027L54.1715 29.4461C52.9191 27.2212 52.6202 24.6418 53.3125 22.1815C54.0047 19.7211 55.6186 17.6831 57.8602 16.4213C58.9448 15.7945 60.1355 15.3933 61.386 15.2331C62.6366 15.0728 63.8912 15.1521 65.1036 15.4864C65.1297 15.4936 65.1558 15.5007 65.1819 15.5079C66.3682 15.835 67.4638 16.3895 68.4497 17.1382C69.4451 17.9036 70.2657 18.8452 70.8889 19.9428L108.98 86.4274C109.181 86.8193 109.385 87.1983 109.612 87.5974L109.645 87.5785L111.918 91.5438C123.655 112.272 131.447 141.353 101.917 162.221L101.899 162.188Z" fill="#33061B"/>
</g>
<defs>
<clipPath id="clip0_41_3002">
<rect width="119.991" height="165.131" fill="white" transform="translate(43.8828) rotate(15.4118)"/>
</clipPath>
</defs>
</svg>
