<svg width="196" height="191" viewBox="0 0 196 191" fill="none" xmlns="http://www.w3.org/2000/svg">
<path d="M110.841 155.569L87.2742 180.341L71.5675 148.89L37.4713 152.046L45.0681 118.203L16.3945 98.2626L43.7314 77.8485L33.8991 44.1455L68.1948 46.721L81.8075 15.0302L106.999 39.385L137.692 24.5231L142.001 59.2703L175.4 68.202L156.811 97.0773L177.295 125.612L144.507 135.1L142.487 169.902L110.841 155.569Z" fill="#FF73B5"/>
<path d="M85.4664 32.7463L103.454 50.128L105.255 51.8742L107.449 50.809L129.355 40.1984L132.435 64.9893L132.744 67.472L135.133 68.1127L158.974 74.4815L145.712 95.0827L144.386 97.1502L145.853 99.193L160.472 119.568L137.064 126.338L134.719 127.015L134.571 129.498L133.134 154.333L110.549 144.105L108.285 143.085L106.597 144.852L89.7771 162.529L78.5724 140.085L77.4487 137.842L75.0103 138.07L50.6702 140.327L56.0883 116.163L56.6324 113.74L54.584 112.311L34.1268 98.0844L53.6428 83.5188L55.5981 82.0566L54.8964 79.6483L47.8872 55.6001L72.354 57.4437L74.8061 57.6307L75.7778 55.3602L85.5011 32.7397M84.1997 26.6148L72.5013 53.856L43.0355 51.644L51.4816 80.613L27.9816 98.1537L52.631 115.295L46.1071 144.393L75.419 141.675L88.9161 168.707L109.181 147.42L136.387 159.733L138.12 129.821L166.309 121.669L148.705 97.1316L164.685 72.3093L135.977 64.6389L132.268 34.7742L105.897 47.5424L84.2459 26.6061L84.1997 26.6148Z" fill="#33061B"/>
<path d="M83.4346 95.6795L83.7832 97.3301C87.1901 96.7061 90.5276 96.0335 93.3861 95.3262C93.9891 98.4609 95.3586 104.945 96.0682 108.305C93.2735 108.756 89.9678 109.3 86.6621 109.844C87.5351 113.419 88.408 116.994 89.281 120.569L77.13 122.795C75.8796 116.595 74.5545 110.042 72.575 100.669C70.5956 91.2962 69.2137 84.753 67.793 78.5842L89.3695 74.632C89.736 76.6467 90.3141 79.6634 90.8619 82.2571C91.3723 84.674 91.9893 87.3162 92.3628 89.0847C88.9435 89.6498 85.3539 90.246 82.4014 90.7869L83.4346 95.6795Z" fill="#33061B"/>
<path d="M118.503 96.3723C123.044 96.2763 125.187 97.7254 127.201 103.313C128.251 106.313 129.54 110.437 130.358 112.62L120.324 114.461C118.784 114.743 118.292 114.097 117.423 111.677C114.609 101.754 113.935 100.526 111.939 100.892L110.115 101.227C111.469 107.058 112.717 112.11 113.767 115.664L102.021 117.818C100.782 111.413 99.4989 105.078 97.4943 95.6205C95.4897 86.1629 94.0921 79.8486 92.625 73.4857L108.361 70.5992C116.115 69.1768 120.695 71.2229 122.863 81.4489C124.767 90.4335 123.53 94.0993 118.428 96.0176L118.503 96.3723ZM112.201 85.9222C111.099 80.7206 109.942 80.0117 107.775 80.4091C107.376 80.4823 106.521 80.6392 105.678 80.8552C106.555 84.9929 107.432 89.1306 108.316 93.0213C108.956 92.9654 109.754 92.819 110.666 92.6516C112.719 92.2751 113.204 90.651 112.201 85.9222Z" fill="#33061B"/>
<path d="M81.6198 71.3627C81.667 71.5866 81.5821 71.9697 81.4833 72.343C81.3396 72.8961 81.1822 73.0476 80.9773 73.0854C80.4535 73.1819 79.9214 72.7901 79.4399 71.74C79.1801 71.9104 78.8825 72.0142 78.5751 72.0709C76.7531 72.4067 75.0976 70.5566 74.4766 67.6095C73.8557 64.6624 74.5996 61.9046 76.5582 61.5435C78.346 61.214 80.0746 63.467 80.6905 66.3905C81.1202 68.4299 80.8644 70.1916 80.0273 71.2154C80.3312 71.7594 80.5809 71.9338 80.7858 71.896C81.1502 71.8289 81.1211 71.1852 81.383 71.1369C81.4741 71.1201 81.5915 71.1719 81.6312 71.3606L81.6198 71.3627ZM78.5122 71.3232C78.7627 71.277 78.9756 71.1643 79.1532 70.9968C78.5883 69.6069 78.3349 69.0781 77.925 69.1536C77.6061 69.2124 77.5945 69.6064 77.4692 69.6295C77.3895 69.6442 77.3202 69.5958 77.2904 69.4543C77.2333 69.1832 77.5086 68.5813 77.9528 68.4995C78.5221 68.3945 78.9403 68.8073 79.5845 70.2928C79.9444 69.4182 79.942 68.0593 79.6092 66.4797C79.0876 64.0041 77.9345 62.0123 76.6022 62.2579C75.213 62.514 75.0294 64.8991 75.5212 67.2332C76.0403 69.697 77.166 71.5591 78.5097 71.3114L78.5122 71.3232Z" fill="#33061B"/>
<path d="M88.5486 69.1906C88.5987 69.4276 88.4429 69.5918 87.8551 69.9097C87.4267 70.1365 87.2648 70.2157 87.1617 70.2347C86.9783 70.2686 86.9152 70.0832 86.8651 69.8462L86.6847 68.9931C86.474 69.9677 85.9592 70.5183 85.2256 70.6538C84.0565 70.8697 83.2933 69.964 82.9575 68.3762L82.3811 65.6507C82.2007 64.7975 81.4506 65.3054 81.3453 64.8077C81.3027 64.6063 81.4585 64.442 81.9919 64.0357C82.3824 63.742 82.5303 63.6531 82.6449 63.632C82.8283 63.5981 82.9067 63.7437 82.9644 64.0162L83.8064 67.9978C84.0946 69.3605 84.5738 69.9369 85.3303 69.7972C86.1556 69.6448 86.578 68.5449 86.3048 67.2532L85.8286 65.0018C85.6482 64.1486 84.8179 64.6713 84.7126 64.1736C84.67 63.9722 84.8259 63.8079 85.4484 63.3729C85.8414 63.091 85.9893 63.0021 86.1039 62.9809C86.2873 62.9471 86.3657 63.0927 86.4234 63.3652L87.4684 68.3066C87.6439 69.1361 88.443 68.8038 88.5257 69.1949L88.5486 69.1906Z" fill="#33061B"/>
<path d="M95.02 68.1102C95.0651 68.3233 94.7229 68.7309 94.2649 68.8154C93.9099 68.881 93.3982 68.6556 93.0827 67.9512C92.8833 68.64 92.257 69.223 91.444 69.3731C90.3218 69.5803 89.3275 68.8167 89.0797 67.6447C88.8319 66.4726 89.4615 65.2863 90.8814 65.0241C91.3051 64.9459 91.6801 64.9751 92.1603 65.1078L92.0923 64.899C91.8419 64.1087 91.3927 62.7156 90.3048 62.9164C89.8353 63.0031 89.5265 63.343 89.1696 63.9624C89.0827 64.1138 88.9986 64.1662 88.9184 64.181C88.8039 64.2022 88.6833 64.1383 88.6533 63.9963C88.6333 63.9016 88.6515 63.7629 88.7106 63.5921C89.0238 62.7101 89.683 62.1702 90.4388 62.0306C91.8931 61.7622 92.4897 63.1773 92.8875 64.3832L93.664 66.7614C93.9358 67.5969 94.0557 67.8823 94.8286 67.9364C94.9481 67.939 95.0139 68.0252 95.0315 68.1081L95.02 68.1102ZM92.8234 67.1749L92.3792 65.8055C91.9297 65.5932 91.4517 65.5831 91.0853 65.6507C90.2608 65.8029 89.7959 66.4177 89.9911 67.3411C90.1739 68.2053 90.7925 68.7677 91.5253 68.6324C92.2582 68.4971 92.7435 67.8662 92.8323 67.161L92.8234 67.1749Z" fill="#33061B"/>
<path d="M95.5883 68.1323C95.4863 67.6399 96.2286 67.9544 95.9884 66.7939L94.4741 59.4791C94.2969 58.6234 93.6676 59.2494 93.5632 58.7453C93.5317 58.5929 93.5998 58.471 94.1008 58.0144C94.5704 57.5758 94.6756 57.5201 94.7769 57.5016C94.9119 57.4769 94.9988 57.5583 95.0352 57.7342L96.8771 66.6315C97.1198 67.8037 97.6801 67.239 97.782 67.7314C97.8014 67.8251 97.7679 68.0016 97.6217 68.0283C97.4079 68.0674 97.0832 68.0781 96.7345 68.1418C96.3857 68.2055 96.0917 68.3079 95.8779 68.347C95.7204 68.3758 95.6238 68.2474 95.5995 68.1302L95.5883 68.1323Z" fill="#33061B"/>
<path d="M98.7604 67.4966C98.6584 67.0042 99.4009 67.3186 99.1605 66.158L98.398 62.4767C98.2207 61.6209 97.5913 62.247 97.4893 61.7546C97.4456 61.5436 97.5837 61.421 98.0245 61.0119C98.5055 60.5711 98.5995 60.5174 98.7008 60.4989C98.8358 60.4742 98.9227 60.5557 98.9592 60.7315L100.052 66.0072C100.295 67.1795 100.855 66.6147 100.957 67.1071C100.977 67.2009 100.943 67.3774 100.797 67.4041C100.583 67.4432 100.258 67.4539 99.9093 67.5177C99.5605 67.5815 99.2664 67.6839 99.0526 67.723C98.895 67.7518 98.7984 67.6235 98.7741 67.5062L98.7604 67.4966ZM97.1436 58.3379C97.0392 57.8338 97.3399 57.2556 97.8013 57.1712C98.1163 57.1136 98.435 57.2987 98.52 57.7091C98.6268 58.2249 98.31 58.7817 97.8712 58.8619C97.5786 58.9154 97.231 58.7599 97.1436 58.3379Z" fill="#33061B"/>
<path d="M105.373 65.3292C105.4 65.4586 105.376 65.622 105.281 65.8471C105.032 66.4551 104.545 66.7768 104.012 66.875C103.252 67.0149 102.535 66.6336 102.397 65.9747L101.296 60.7276L100.615 60.8529C100.434 60.8863 100.307 60.7875 100.275 60.6346C100.245 60.4934 100.307 60.3964 100.464 60.2453C100.998 59.7561 101.161 59.2984 101.059 57.8019C101.043 57.4994 101.074 57.3104 101.255 57.277C101.414 57.2478 101.53 57.3487 101.599 57.6781L102.068 59.9135L103.827 59.5897C103.952 59.5667 104.021 59.6151 104.038 59.6975C104.055 59.7798 104.073 59.9231 104.077 59.9958C104.086 60.1529 104.028 60.2125 103.926 60.2313L102.213 60.5467L103.173 65.1232C103.351 65.9703 103.768 66.1623 104.131 66.0954C104.563 66.0161 104.771 65.55 104.888 65.3207C104.943 65.1885 105.046 65.1205 105.126 65.1059C105.262 65.0808 105.366 65.1839 105.398 65.3368L105.373 65.3292Z" fill="#33061B"/>
<path d="M110.693 63.959C110.718 64.0767 110.715 64.1751 110.677 64.3289C110.485 65.1589 109.776 65.8275 108.913 65.9865C107.482 66.2501 105.974 65.195 105.412 62.5228C105.016 60.6393 105.59 58.9319 107.203 58.6348C108.305 58.4319 109.525 59.3564 109.884 61.0634C109.916 61.2164 109.91 61.4131 109.752 61.5034L106.604 63.0858C107.168 64.5348 108.073 65.3586 109.027 65.1829C109.584 65.0804 109.974 64.5805 110.206 63.9998C110.267 63.8418 110.314 63.7842 110.439 63.7612C110.553 63.7403 110.672 63.8039 110.71 63.9805L110.693 63.959ZM106.266 61.9254C106.305 62.1137 106.345 62.3021 106.393 62.4766L108.59 61.3628C108.845 61.2302 108.901 61.1588 108.852 60.9234C108.624 59.8403 107.801 59.2339 107.164 59.3511C106.131 59.5414 106.004 60.6775 106.266 61.9254ZM106.613 57.6797C106.595 57.5973 106.611 57.4477 106.623 57.3354C106.744 56.6773 106.889 55.9048 107.043 55.3505C107.113 55.1177 107.18 55.0442 107.441 54.9961C107.759 54.9375 107.9 54.9359 107.942 55.136C107.97 55.2655 107.871 55.5282 107.758 55.8303C107.635 56.1463 107.301 57.1372 107.174 57.4297C107.049 57.7339 106.974 57.7721 106.849 57.7951C106.724 57.8181 106.632 57.7739 106.61 57.6679L106.613 57.6797Z" fill="#33061B"/>
<path d="M80.392 133.225C79.7296 130.087 80.532 127.549 82.276 127.227C82.9143 127.109 83.3755 127.331 83.5237 127.303C83.6832 127.274 83.611 126.932 83.8618 126.886C84.0214 126.856 84.1424 126.981 84.3133 127.342L84.884 128.474C85.2033 129.09 85.3112 129.376 85.341 129.518C85.3709 129.659 85.2996 129.77 85.1743 129.794C85.0489 129.817 84.9378 129.739 84.7576 129.503C84.0797 128.647 83.312 127.759 82.4343 127.921C81.1919 128.15 80.9106 130.408 81.4236 132.839C81.969 135.423 83.1147 137.148 84.7219 136.851C85.4742 136.713 85.6755 136.32 85.5958 135.943L85.1028 133.607C84.906 132.675 84.3741 133.128 84.272 132.644C84.2421 132.503 84.3084 132.368 84.4794 132.336L86.0752 132.042C86.2576 132.008 86.3573 132.088 86.3921 132.253C86.4867 132.702 85.8749 132.496 86.0716 133.428L86.5223 135.563C86.6444 136.141 86.8321 136.021 86.8919 136.304C86.9168 136.422 86.8455 136.533 86.7058 136.657C86.3909 136.96 85.7222 137.439 84.8218 137.605C82.6219 138.011 81.0256 136.283 80.3756 133.204L80.392 133.225Z" fill="#33061B"/>
<path d="M87.6093 133.164C87.1716 131.094 87.8571 129.223 89.5496 128.91C91.0591 128.632 92.4428 129.949 92.903 132.126C93.3382 134.183 92.6388 136.045 90.9577 136.355C89.4482 136.634 88.067 135.328 87.6068 133.152L87.6093 133.164ZM92.0335 132.79C91.6133 130.803 90.4851 129.401 89.4788 129.587C88.4724 129.773 88.1786 131.08 88.4788 132.5C88.8965 134.475 89.9968 135.857 91.0146 135.669C92.0324 135.481 92.3362 134.221 92.0335 132.79Z" fill="#33061B"/>
<path d="M100.361 133.612C100.411 133.849 100.255 134.013 99.6677 134.331C99.2394 134.558 99.0775 134.637 98.9744 134.656C98.791 134.69 98.728 134.505 98.6778 134.268L98.4972 133.415C98.2867 134.389 97.7721 134.94 97.0387 135.075C95.8698 135.291 95.1065 134.385 94.7705 132.797L94.1937 130.072C94.0132 129.219 93.2633 129.726 93.1579 129.229C93.1153 129.027 93.2711 128.863 93.8043 128.457C94.1947 128.163 94.3426 128.074 94.4572 128.053C94.6405 128.019 94.719 128.165 94.7766 128.437L95.6192 132.419C95.9076 133.782 96.3868 134.358 97.1432 134.219C97.9683 134.066 98.3905 132.966 98.1172 131.675L97.6407 129.423C97.4601 128.57 96.63 129.093 96.5247 128.595C96.4821 128.393 96.6378 128.229 97.2602 127.794C97.6531 127.512 97.801 127.423 97.9156 127.402C98.099 127.368 98.1774 127.514 98.2351 127.787L99.2808 132.728C99.4563 133.558 100.255 133.225 100.338 133.616L100.361 133.612Z" fill="#33061B"/>
<path d="M104.227 126.625C104.267 126.814 104.273 127.18 104.252 127.699C104.24 127.922 104.19 128.079 104.042 128.106C103.905 128.131 103.805 128.052 103.677 127.781C103.461 127.318 103.327 127.245 103.122 127.282C102.551 127.388 101.921 128.78 102.365 130.881L102.654 132.251C102.903 133.431 103.615 132.871 103.712 133.331C103.737 133.449 103.687 133.606 103.539 133.633C103.288 133.679 102.913 133.7 102.513 133.773C102.16 133.838 101.862 133.942 101.645 133.982C101.485 134.012 101.387 133.883 101.362 133.765C101.272 133.34 102.011 133.584 101.764 132.415L100.984 128.719C100.804 127.869 100.158 128.455 100.058 127.983C100.018 127.794 100.176 127.642 100.651 127.199C101.117 126.769 101.192 126.731 101.283 126.714C101.466 126.68 101.528 126.865 101.578 127.101L101.89 128.577C102.002 127.366 102.573 126.427 103.418 126.271C103.84 126.193 104.192 126.349 104.255 126.644L104.227 126.625Z" fill="#33061B"/>
<path d="M115.245 131.119C115.285 131.31 115.173 131.405 115.024 131.432C114.747 131.484 114.53 131.474 114.115 131.551C113.701 131.627 113.515 131.711 113.227 131.765C113.066 131.794 112.93 131.72 112.893 131.541C112.804 131.124 113.554 131.332 113.358 130.402C113.348 130.354 113.308 130.163 113.273 130.058L112.435 127.449C112.096 126.409 111.776 125.464 110.993 125.609C110.256 125.745 110.056 126.724 110.343 128.084L110.885 130.648C111.137 131.841 111.736 131.334 111.827 131.763C111.852 131.883 111.801 132.041 111.663 132.066C111.433 132.109 111.112 132.119 110.743 132.187C110.375 132.255 110.12 132.351 109.901 132.392C109.74 132.422 109.618 132.296 109.592 132.176C109.502 131.747 110.225 131.997 109.975 130.817L109.386 128.025C109.192 127.107 108.831 126.021 107.944 126.185C107.333 126.298 106.81 127.163 107.123 128.642L107.672 131.242C107.924 132.435 108.511 131.93 108.602 132.359C108.622 132.455 108.588 132.635 108.439 132.662C108.22 132.703 107.899 132.713 107.53 132.781C107.162 132.849 106.895 132.948 106.653 132.992C106.504 133.02 106.393 132.892 106.368 132.773C106.277 132.343 107.023 132.589 106.774 131.409L105.985 127.675C105.803 126.816 105.151 127.408 105.05 126.931C105.01 126.74 105.169 126.586 105.648 126.138C106.119 125.704 106.195 125.666 106.287 125.648C106.471 125.614 106.534 125.801 106.585 126.04L106.761 126.875C106.889 126.12 107.339 125.417 108.122 125.272C108.905 125.127 109.451 125.671 109.803 126.374L109.814 126.372C109.981 125.461 110.356 124.859 111.116 124.718C112.302 124.499 112.902 125.752 113.211 126.76L114.211 129.909C114.639 131.256 115.168 130.699 115.264 131.153L115.245 131.119Z" fill="#33061B"/>
<path d="M120.494 128.759C120.519 128.878 120.516 128.976 120.478 129.131C120.286 129.964 119.574 130.636 118.706 130.796C117.267 131.061 115.751 130.003 115.184 127.321C114.784 125.43 115.359 123.716 116.98 123.417C118.088 123.213 119.305 124.142 119.667 125.855C119.699 126.009 119.693 126.206 119.535 126.297L116.371 127.887C116.939 129.342 117.85 130.168 118.809 129.991C119.368 129.888 119.76 129.386 119.993 128.803C120.054 128.644 120.102 128.586 120.227 128.563C120.341 128.542 120.462 128.606 120.499 128.783L120.494 128.759ZM116.03 126.723C116.07 126.912 116.11 127.101 116.159 127.276L118.366 126.157C118.623 126.023 118.679 125.952 118.629 125.715C118.399 124.628 117.571 124.02 116.931 124.138C115.892 124.33 115.765 125.47 116.03 126.723Z" fill="#33061B"/>
<path d="M126.252 127.605C126.277 127.723 126.274 127.822 126.235 127.976C126.044 128.81 125.332 129.481 124.464 129.641C123.025 129.907 121.508 128.849 120.942 126.167C120.542 124.276 121.117 122.562 122.738 122.263C123.846 122.058 125.062 122.988 125.425 124.701C125.457 124.855 125.451 125.052 125.292 125.143L122.129 126.733C122.697 128.187 123.607 129.014 124.567 128.837C125.126 128.734 125.518 128.231 125.751 127.648C125.812 127.49 125.859 127.432 125.985 127.409C126.099 127.388 126.219 127.451 126.257 127.629L126.252 127.605ZM121.799 125.566C121.839 125.755 121.879 125.944 121.928 126.12L124.135 125C124.392 124.867 124.448 124.795 124.398 124.559C124.168 123.472 123.34 122.864 122.7 122.982C121.661 123.173 121.535 124.314 121.799 125.566Z" fill="#33061B"/>
<path d="M130.904 126.989C130.931 127.118 130.907 127.282 130.813 127.507C130.563 128.115 130.077 128.436 129.544 128.535C128.784 128.675 128.068 128.293 127.93 127.635L126.827 122.388L126.147 122.513C125.965 122.546 125.839 122.447 125.807 122.295C125.777 122.153 125.839 122.056 125.996 121.905C126.529 121.416 126.692 120.958 126.59 119.462C126.573 119.159 126.604 118.97 126.786 118.937C126.945 118.908 127.06 119.009 127.129 119.338L127.596 121.562L129.354 121.238C129.479 121.215 129.548 121.263 129.566 121.345C129.583 121.428 129.601 121.571 129.605 121.644C129.614 121.801 129.556 121.86 129.454 121.879L127.741 122.195L128.702 126.771C128.88 127.618 129.298 127.81 129.661 127.743C130.092 127.664 130.3 127.198 130.417 126.969C130.471 126.836 130.575 126.768 130.654 126.754C130.79 126.729 130.895 126.832 130.927 126.985L130.904 126.989Z" fill="#33061B"/>
</svg>
